<?xml version="1.0" encoding="UTF-8"?>
<!DOCTYPE svg PUBLIC "-//W3C//DTD SVG 1.1//EN" "http://www.w3.org/Graphics/SVG/1.1/DTD/svg11.dtd">
<!-- Creator: CorelDRAW X7 -->
<svg xmlns="http://www.w3.org/2000/svg" xml:space="preserve" width="2.53333in" height="0.333335in" version="1.1" style="shape-rendering:geometricPrecision; text-rendering:geometricPrecision; image-rendering:optimizeQuality; fill-rule:evenodd; clip-rule:evenodd"
viewBox="0 0 3171 417"
 xmlns:xlink="http://www.w3.org/1999/xlink">
 <defs>
  <style type="text/css">
   <![CDATA[
    .fil2 {fill:none}
    .fil0 {fill:#F58634}
    .fil3 {fill:#FEFEFE;fill-rule:nonzero}
    .fil1 {fill:#FEFEFE;fill-rule:nonzero}
   ]]>
  </style>
    <clipPath id="id0">
     <path d="M0 0l3171 0 0 417 -3171 0 0 -417z"/>
    </clipPath>
 </defs>
 <g id="Layer_x0020_1_0">
  <metadata id="CorelCorpID_0Corel-Layer"/>
  <g id="_1281964176">
   <polygon class="fil0" points="0,0 3171,0 3171,417 0,417 "/>
   <g style="clip-path:url(#id0)">
    <g>
     <path id="1" class="fil1" d="M-19 219l-36 96 97 0c0,0 -34,137 -69,145l-150 0 110 -51c-35,-55 -56,-120 -56,-190 0,-193 157,-350 350,-350 118,0 222,58 285,147l-462 0 -35 97 104 0 -44 106 -94 0zm698 -112l0 0 -120 0 -14 0 -228 0 -39 112 249 0c-15,20 -34,90 -34,90l-252 0 -43 119c-24,93 -82,115 -95,119 39,14 81,22 124,22 194,0 350,-156 350,-350 0,-19 -1,-39 -4,-58l106 -54z"/>
    </g>
   </g>
   <polygon class="fil2" points="0,0 3171,0 3171,417 0,417 "/>
   <path class="fil3" d="M952 258c-6,0 -11,-2 -15,-5 -5,-3 -8,-7 -10,-12l-1 0 -6 15 -11 0 29 -138 15 0c-3,14 -5,25 -7,33 -2,7 -4,16 -7,26l1 0c6,-7 11,-12 16,-15 6,-3 11,-5 17,-5 8,0 15,3 19,9 5,6 7,14 7,24 0,12 -2,24 -6,34 -4,11 -9,19 -17,25 -7,6 -15,9 -24,9zm16 -89c-5,0 -11,3 -17,9 -6,5 -10,13 -14,21 -3,9 -5,17 -5,26 0,7 2,12 5,15 3,4 8,5 14,5 6,0 11,-2 16,-7 5,-5 9,-12 13,-20 3,-9 4,-19 4,-28 0,-14 -5,-21 -16,-21zm45 -10l15 0 7 48c0,4 1,10 2,18 0,8 0,14 0,19l1 0c2,-5 5,-11 8,-18 3,-6 5,-11 6,-13l29 -54 16 0 -62 113c-5,10 -11,17 -16,21 -5,4 -12,6 -19,6 -5,0 -9,0 -13,-2l0 -11c4,1 8,1 12,1 5,0 9,-1 12,-4 4,-3 7,-8 10,-14l7 -12 -15 -98zm147 97l-32 -102 0 0c1,21 1,35 1,42l0 60 -24 0 0 -130 37 0 31 99 0 0 33 -99 37 0 0 130 -25 0 0 -62c0,-2 0,-6 0,-10 0,-3 0,-13 1,-30l-1 0 -33 102 -25 0zm195 0l-9 -31 -48 0 -9 31 -30 0 46 -130 34 0 46 130 -30 0zm-16 -54c-9,-28 -13,-44 -15,-47 -1,-4 -1,-7 -2,-9 -2,7 -7,26 -17,56l34 0zm62 54l0 -130 27 0 0 130 -27 0zm60 0l0 -130 27 0 0 107 53 0 0 23 -80 0zm200 0l-28 0 0 -107 -35 0 0 -23 98 0 0 23 -35 0 0 107zm82 -72l9 0c9,0 15,-2 19,-5 4,-2 6,-7 6,-13 0,-6 -2,-11 -6,-13 -4,-3 -11,-4 -20,-4l-8 0 0 35zm0 22l0 50 -27 0 0 -130 37 0c18,0 31,3 39,10 9,6 13,16 13,29 0,8 -2,14 -6,20 -4,6 -10,11 -18,14 19,29 32,48 38,57l-30 0 -31 -50 -15 0zm172 50l-10 -31 -47 0 -9 31 -30 0 46 -130 33 0 46 130 -29 0zm-16 -54c-9,-28 -14,-44 -15,-47 -1,-4 -2,-7 -2,-9 -2,7 -8,26 -17,56l34 0zm176 54l-34 0 -57 -98 -1 0c2,17 2,29 2,37l0 61 -24 0 0 -130 34 0 56 97 1 0c-1,-17 -1,-28 -1,-35l0 -62 24 0 0 130zm110 -36c0,12 -5,21 -13,27 -9,7 -20,11 -35,11 -14,0 -26,-3 -37,-8l0 -26c9,4 16,7 22,9 6,1 12,2 17,2 6,0 11,-1 14,-4 3,-2 5,-5 5,-10 0,-2 -1,-5 -3,-7 -1,-2 -3,-3 -6,-5 -3,-2 -8,-5 -17,-9 -7,-4 -13,-7 -17,-11 -4,-3 -8,-7 -10,-12 -2,-4 -3,-10 -3,-16 0,-11 3,-20 11,-27 8,-6 19,-10 32,-10 7,0 14,1 20,3 6,1 12,4 19,7l-9 21c-7,-3 -13,-5 -17,-6 -5,-1 -9,-2 -13,-2 -6,0 -10,2 -12,4 -3,2 -5,6 -5,9 0,3 1,5 2,7 1,2 3,3 5,5 3,2 9,5 18,9 12,6 20,12 25,17 4,6 7,13 7,22zm50 36l-27 0 0 -130 74 0 0 23 -47 0 0 33 44 0 0 23 -44 0 0 51zm147 0l-75 0 0 -130 75 0 0 23 -47 0 0 28 44 0 0 23 -44 0 0 33 47 0 0 23zm55 -72l8 0c9,0 15,-2 20,-5 4,-2 6,-7 6,-13 0,-6 -2,-11 -7,-13 -4,-3 -10,-4 -19,-4l-8 0 0 35zm0 22l0 50 -28 0 0 -130 38 0c17,0 30,3 39,10 8,6 12,16 12,29 0,8 -2,14 -6,20 -4,6 -10,11 -18,14 20,29 33,48 38,57l-30 0 -31 -50 -14 0z"/>
  </g>
 </g>
</svg>
