<?xml version="1.0" encoding="UTF-8"?>
<!DOCTYPE svg PUBLIC "-//W3C//DTD SVG 1.1//EN" "http://www.w3.org/Graphics/SVG/1.1/DTD/svg11.dtd">
<!-- Creator: CorelDRAW X7 -->
<svg xmlns="http://www.w3.org/2000/svg" xml:space="preserve" width="1.83334in" height="1.33334in" version="1.1" style="shape-rendering:geometricPrecision; text-rendering:geometricPrecision; image-rendering:optimizeQuality; fill-rule:evenodd; clip-rule:evenodd"
viewBox="0 0 2127 1547"
 xmlns:xlink="http://www.w3.org/1999/xlink">
 <defs>
  <style type="text/css">
   <![CDATA[
    .fil1 {fill:none}
    .fil0 {fill:#E6E7E8;fill-opacity:0.501961}
   ]]>
  </style>
   <clipPath id="id0">
    <path d="M0 0l2127 0 0 1547 -2127 0 0 -1547z"/>
   </clipPath>
 </defs>
 <g id="Layer_x0020_1">
  <metadata id="CorelCorpID_0Corel-Layer"/>
  <g>
  </g>
  <g style="clip-path:url(#id0)">
   <g>
    <g id="_1188520544">
     <path class="fil0" d="M804 1458c81,13 166,20 253,20 289,0 550,-75 743,-197 -236,-345 -590,-828 -961,-965 -88,-33 -178,-49 -270,-49 -97,0 -177,19 -240,57 -63,38 -95,85 -95,142 0,22 6,43 16,62 9,18 25,36 46,53 53,39 167,64 343,75 81,5 144,10 188,15 130,15 234,57 310,126 76,69 114,154 114,255 0,120 -52,219 -157,297 -78,58 -175,94 -290,109l0 0z"/>
     <path class="fil0" d="M2028 1068c63,-90 99,-190 99,-296 0,-106 -35,-206 -99,-296l0 592z"/>
     <path class="fil0" d="M389 1262c98,36 196,55 292,55 119,0 215,-25 289,-75 75,-51 112,-116 112,-195 0,-63 -27,-114 -80,-155 -158,-120 -543,-60 -752,-154 -59,-29 -105,-66 -136,-112 -25,-37 -40,-77 -45,-122 -167,310 -19,629 320,758z"/>
     <path class="fil0" d="M1868 313c-196,-149 -487,-244 -811,-244 -140,0 -273,18 -395,50 74,7 149,23 222,48 417,141 757,565 984,901l0 -755 0 0z"/>
    </g>
   </g>
  </g>
  <polygon class="fil1" points="0,0 2127,0 2127,1547 0,1547 "/>
 </g>
</svg>
