<?xml version="1.0" encoding="UTF-8"?>
<!DOCTYPE svg PUBLIC "-//W3C//DTD SVG 1.1//EN" "http://www.w3.org/Graphics/SVG/1.1/DTD/svg11.dtd">
<!-- Creator: CorelDRAW X7 -->
<svg xmlns="http://www.w3.org/2000/svg" xml:space="preserve" width="212px" height="202px" version="1.1" style="shape-rendering:geometricPrecision; text-rendering:geometricPrecision; image-rendering:optimizeQuality; fill-rule:evenodd; clip-rule:evenodd"
viewBox="0 0 2157 2054"
 xmlns:xlink="http://www.w3.org/1999/xlink">
 <defs>
  <style type="text/css">
   <![CDATA[
    .fil0 {fill:#EDEDED}
    .fil1 {fill:black;fill-opacity:0.101961}
   ]]>
  </style>
 </defs>
 <g id="Layer_x0020_1">
  <metadata id="CorelCorpID_0Corel-Layer"/>
  <rect class="fil0" width="2157" height="2054"/>
  <path class="fil1" d="M433 0l3 0c344,1 649,171 835,431l-1271 0 0 -335c132,-61 278,-96 433,-96zm-433 993l0 -277 116 0 -116 277zm1759 -294l0 0 -351 0 -41 0 -669 0 -116 328 732 0c-44,58 -99,264 -99,264l-740 0 -126 349c-70,274 -242,337 -280,348 114,43 237,66 365,66 568,0 1028,-459 1028,-1027 0,-58 -5,-115 -15,-170l312 -158z"/>
 </g>
</svg>
