<?xml version="1.0" encoding="UTF-8"?>
<!DOCTYPE svg PUBLIC "-//W3C//DTD SVG 1.1//EN" "http://www.w3.org/Graphics/SVG/1.1/DTD/svg11.dtd">
<!-- Creator: CorelDRAW X7 -->
<svg xmlns="http://www.w3.org/2000/svg" xml:space="preserve" width="0.166795in" height="0.100134in" version="1.1" style="shape-rendering:geometricPrecision; text-rendering:geometricPrecision; image-rendering:optimizeQuality; fill-rule:evenodd; clip-rule:evenodd"
viewBox="0 0 721 433"
 xmlns:xlink="http://www.w3.org/1999/xlink">
 <defs>
  <style type="text/css">
   <![CDATA[
    .str0 {stroke:#BDBFC1;stroke-width:0.578915}
    .fil5 {fill:none}
    .fil2 {fill:#00247D}
    .fil3 {fill:#002868}
    .fil0 {fill:#CE142B}
    .fil4 {fill:#CE142B}
    .fil1 {fill:#FEFEFE}
   ]]>
  </style>
 </defs>
 <g id="Layer_x0020_1_0">
  <metadata id="CorelCorpID_0Corel-Layer"/>
  <g id="_1077638784">
   <g>
    <path class="fil0" d="M720 49l0 95 0 29 -286 0c-2,3 -9,7 -13,8l-131 0 129 0c-4,5 -43,27 -53,32 -7,5 -9,4 -18,4 -13,0 -51,1 -59,-1l0 37 -15 0 -274 0 0 0 299 0 -5 4c-1,1 -3,1 -4,3l35 0 0 173 72 0 0 -173 323 0 0 29 0 95 0 15c-5,-1 -47,-27 -55,-32l-124 -74c-7,-5 -7,-4 -17,-4 -13,0 -29,-1 -42,0 6,6 233,138 238,144l1 0 0 -431 -1 0 0 47z"/>
    <path class="fil1" d="M289 37l0 35 311 0 -57 36c-6,2 -72,0 -84,0 -13,0 -162,-1 -170,1l0 35 191 0c-7,4 -15,10 -22,15 -9,5 -16,9 -24,14l286 0 0 -29 -157 0 157 -95 0 -47c-6,1 -51,31 -58,34 -5,2 -234,0 -259,0 -21,0 -100,-1 -114,1z"/>
    <path class="fil1" d="M397 433l24 0 0 -131c6,2 46,27 55,32 18,11 36,22 55,33 18,11 36,22 55,33 8,5 49,28 53,33l81 0c-5,-6 -232,-138 -238,-144 13,-1 29,0 42,0 10,0 10,-1 17,4l124 74c8,5 50,31 55,32l0 -15 -157 -95 157 0 0 -29 -323 0 0 173z"/>
    <path class="fil0" d="M0 325l180 0c-6,5 -27,16 -35,21 -23,14 -19,15 -40,15 -35,0 -70,0 -105,0l0 36 59 0c-5,6 -50,29 -58,36l54 0c3,-4 52,-32 60,-37l119 -71c10,-6 55,-31 59,-36l-293 0 0 36z"/>
    <path class="fil1" d="M0 289l293 0c-4,5 -49,30 -59,36l-119 71c-8,5 -57,33 -60,37l27 0c5,-6 20,-13 27,-17l136 -82c9,-5 50,-30 56,-32l0 131 24 0 0 -173 -35 0c1,-2 3,-2 4,-3l5 -4 -299 0 0 36z"/>
    <path class="fil0" d="M289 37c14,-2 93,-1 114,-1 25,0 254,2 259,0 7,-3 52,-33 58,-34l1 0 0 -2 -432 0 0 37z"/>
    <path class="fil2" d="M421 433l218 0c-4,-5 -45,-28 -53,-33 -19,-11 -37,-22 -55,-33 -19,-11 -37,-22 -55,-33 -9,-5 -49,-30 -55,-32l0 131z"/>
    <path class="fil2" d="M82 433l219 0 0 -131c-6,2 -47,27 -56,32l-136 82c-7,4 -22,11 -27,17z"/>
    <path class="fil0" d="M289 109c8,-2 157,-1 170,-1 12,0 78,2 84,0l57 -36 -311 0 0 37z"/>
    <polygon class="fil2" points="720,384 720,289 563,289 "/>
    <polygon class="fil2" points="720,144 720,49 563,144 "/>
    <path class="fil0" d="M289 181l1 0 131 0c4,-1 11,-5 13,-8 8,-5 15,-9 24,-14 7,-5 15,-11 22,-15l-191 0 0 37z"/>
    <path class="fil1" d="M0 361c35,0 70,0 105,0 21,0 17,-1 40,-15 8,-5 29,-16 35,-21l-180 0 0 36z"/>
    <path class="fil1" d="M289 216c8,2 46,1 59,1 9,0 11,1 18,-4 10,-5 49,-27 53,-32l-129 0 -1 0 0 35z"/>
    <path class="fil1" d="M0 433l1 0c8,-7 53,-30 58,-36l-59 0 0 36z"/>
    <g>
     <polygon class="fil3" points="0,260 274,260 289,260 289,222 289,186 289,148 289,112 289,74 289,38 289,0 0,0 "/>
     <path class="fil1" d="M38 50c3,1 3,1 6,4l-2 10c3,-2 3,-4 7,-6 2,2 4,4 6,6l-2 -9c2,-4 3,-3 5,-7l-7 -1 -3 -9c-4,13 0,8 -5,10 -7,1 4,-3 -2,0 -3,1 -1,0 -3,2z"/>
     <path class="fil1" d="M38 205c3,2 3,1 6,4l-2 10c3,-2 3,-3 7,-5 2,2 4,4 6,5l-2 -9c1,-3 0,0 2,-3l3 -4 -7 0 -3 -9c-4,12 0,8 -5,9 -7,2 4,-2 -2,1 -3,1 -1,-1 -3,1z"/>
     <path class="fil1" d="M141 99l-7 1c2,2 4,4 6,6l-2 9c2,-1 4,-3 6,-5 4,2 5,4 7,5l-2 -9c3,-3 4,-3 6,-7l-8 0c-1,-3 -1,-6 -3,-9 0,3 -1,7 -3,9z"/>
     <path class="fil1" d="M213 177l-7 0c2,3 4,4 6,7l-2 9c2,-1 4,-4 7,-5 3,2 4,3 6,5l-2 -9c2,-3 5,-4 6,-7l-8 0c0,-4 -1,-6 -3,-9 0,3 -1,7 -3,9z"/>
     <path class="fil1" d="M213 22l-7 0c2,2 4,3 6,6l-2 10c2,-2 4,-4 7,-6 3,2 4,4 6,6l-2 -10c2,-2 5,-4 6,-6l-8 0c0,-4 -1,-7 -3,-10 0,4 -1,8 -3,10z"/>
     <path class="fil1" d="M190 99l-8 0c2,3 4,5 6,7l-2 10c3,-3 3,-4 7,-6 2,2 4,4 6,6l-2 -10c3,-3 5,-4 6,-7l-8 0 -2 -9c-2,3 -2,5 -3,9z"/>
     <path class="fil1" d="M44 99l-6 0c1,3 4,4 6,7l-2 9c2,-1 4,-3 6,-5 3,2 4,4 7,6l-2 -10c2,-2 4,-4 6,-7l-8 0 -3 -9c0,2 -1,4 -1,6 -2,5 0,2 -3,3z"/>
     <path class="fil1" d="M62 125l3 4c1,1 2,1 3,2l-2 10c3,-1 4,-3 6,-5 4,2 4,4 7,5l-2 -10c3,-1 4,-2 6,-6l-8 0 -2 -9c-4,10 0,9 -11,9z"/>
     <path class="fil1" d="M22 22l-8 0c2,2 4,4 6,6l-2 10c3,-2 3,-4 7,-6 2,2 4,4 6,6l-2 -10c2,-3 4,-4 6,-6 -8,-1 -8,1 -10,-10 -2,2 -1,1 -2,4 0,2 -1,4 -1,6z"/>
     <path class="fil1" d="M118 21l-8 1c2,2 4,4 6,6l-2 10c3,-2 4,-4 7,-6 2,2 4,4 6,6l-2 -10c2,-2 4,-4 6,-6l-8 -1 -2 -9 -3 9z"/>
     <path class="fil1" d="M118 177l-8 0c2,3 4,4 6,7l-2 9c3,-2 4,-4 7,-5 2,2 4,4 6,5l-2 -9c2,-3 4,-4 6,-7l-8 0 -2 -9 -3 9z"/>
     <path class="fil1" d="M166 74l-8 0c2,2 4,4 6,5l-2 10c3,-1 4,-3 7,-5 2,2 4,4 6,5l-2 -9 6 -6 -8 -1 -2 -9 -3 10z"/>
     <path class="fil1" d="M166 229l-8 0c2,3 4,5 6,6l-2 10c3,-2 4,-3 7,-5 2,2 4,3 6,5l-2 -9 6 -6 -8 -1 -2 -9 -3 9z"/>
     <path class="fil1" d="M262 229l-8 0c2,3 4,4 6,7l-2 9c3,-2 4,-4 7,-5 2,2 4,4 6,5l-2 -10c2,-1 2,-1 3,-2 0,-1 2,-2 2,-2 1,-1 0,-1 1,-2 -11,0 -6,2 -10,-9l-3 9z"/>
     <path class="fil1" d="M46 151l-8 0c2,4 3,4 6,6l-2 10c2,-2 4,-3 6,-5 3,1 4,3 7,5l-2 -10c2,-2 4,-3 6,-6l-8 0 -2 -9 -3 9z"/>
     <path class="fil1" d="M262 177l-8 0c2,3 5,4 6,6l-2 10c3,-1 4,-3 7,-5 2,1 5,4 6,5l-2 -9c3,-3 4,-4 7,-6 -9,-1 -8,1 -11,-10l-3 9z"/>
     <path class="fil1" d="M262 21l-8 1c2,2 5,4 6,6l-2 10c3,-2 4,-4 7,-6 2,2 5,4 6,6l-2 -10c3,-2 4,-4 7,-6 -9,-1 -8,1 -11,-10l-3 9z"/>
     <path class="fil1" d="M22 125l-8 0 6 7 -2 9c2,-2 4,-4 7,-5 2,2 4,4 6,5l-2 -9c3,-4 4,-3 5,-7 -9,0 -6,2 -10,-9l-2 9z"/>
     <path class="fil1" d="M262 125l-7 0 5 7 -2 9c3,-1 4,-4 7,-5 2,2 4,4 6,5l-2 -9c4,-4 4,-3 6,-7 -10,0 -7,2 -10,-9l-3 9z"/>
     <path class="fil1" d="M190 203l-7 0c1,3 0,1 1,2 0,1 2,2 2,2 2,3 1,0 2,3l-2 9c3,-2 4,-4 7,-5 2,1 4,4 6,5l-2 -10c3,-3 4,-2 6,-6 -10,0 -7,2 -10,-9l-3 9z"/>
     <path class="fil1" d="M190 47l-7 1c2,4 3,3 5,7l-2 9c3,-2 4,-5 7,-6 2,2 4,4 6,6l-2 -10c3,-4 4,-3 6,-6 -10,-1 -7,1 -10,-10l-3 9z"/>
     <path class="fil1" d="M118 73l-8 1c2,2 5,4 6,6l-2 9c3,-2 4,-4 7,-5 2,2 3,3 6,5l-2 -10c3,-2 4,-2 6,-5l-8 -1 -2 -9 -3 9z"/>
     <path class="fil1" d="M118 229l-8 0c2,3 5,4 6,7l-2 9c3,-2 4,-4 7,-5 2,2 3,3 6,5l-2 -10c3,-2 4,-3 6,-6l-8 0 -2 -9 -3 9z"/>
     <path class="fil1" d="M238 48l-8 0c2,2 4,4 6,5l-2 10c3,-1 4,-3 7,-5 3,2 3,4 7,5l-3 -10c1,0 2,-1 3,-2l3 -3 -7 0 -3 -9 -3 9z"/>
     <path class="fil1" d="M238 203l-8 0c2,3 4,4 6,6l-2 10c3,-2 4,-4 7,-5 3,2 3,4 7,5l-3 -10c1,-1 2,-1 3,-2l3 -4 -7 0 -3 -9 -3 9z"/>
     <path class="fil1" d="M262 73l-8 1c2,3 4,3 6,6l-2 9c3,-1 4,-3 7,-5 2,2 4,4 6,5l-2 -10 5 -4c1,-1 0,0 1,-1 -11,-1 -6,1 -10,-10l-3 9z"/>
     <path class="fil1" d="M206 229l6 6 -2 10c3,-2 4,-4 7,-5 3,2 3,3 6,5l-2 -9 6 -7 -8 0 -2 -9c-4,11 0,9 -11,9z"/>
     <path class="fil1" d="M206 74l6 5 -2 10c3,-1 4,-3 7,-5 3,2 3,4 6,5l-2 -9 6 -6 -8 -1 -2 -9c-4,11 0,9 -11,10z"/>
     <path class="fil1" d="M207 126c2,3 2,2 5,5l-2 10c2,-1 5,-3 7,-5 2,1 4,3 6,5l-2 -9 6 -6 -8 -1 -2 -9c-3,11 0,9 -10,10z"/>
     <path class="fil1" d="M190 151l-8 0c2,3 4,4 6,6l-2 10c3,-2 4,-4 7,-5 2,2 4,3 6,5l-2 -10c3,-2 4,-2 6,-6l-8 0 -2 -9 -3 9z"/>
     <path class="fil1" d="M22 177l-8 0c2,3 4,4 6,6l-2 10c3,-1 3,-3 7,-5 2,1 4,4 6,5l-2 -9c2,-3 4,-4 6,-6 -8,-1 -8,1 -10,-10l-3 9z"/>
     <path class="fil1" d="M142 151l-8 0 6 6 -2 10c3,-2 4,-3 7,-5 2,2 4,4 6,5l-2 -9c2,-3 4,-3 6,-6l-8 -1 -2 -9 -3 9z"/>
     <path class="fil1" d="M70 73l-8 1 6 6 -2 9c2,-1 5,-3 6,-5 3,2 4,4 7,5l-2 -10c2,-1 4,-3 6,-5l-8 -1 -2 -9 -3 9z"/>
     <path class="fil1" d="M70 229l-8 0 6 7 -2 9c2,-2 5,-4 6,-5 3,2 4,3 7,5l-2 -10c2,-1 4,-4 6,-6l-8 0 -2 -9 -3 9z"/>
     <path class="fil1" d="M70 22l-8 0 6 6 -2 9c3,-1 4,-3 6,-5 3,2 4,4 7,5l-2 -9c2,-3 4,-4 6,-6l-8 0 -2 -10 -3 10z"/>
     <path class="fil1" d="M70 177l-8 0 6 7 -2 9c3,-2 4,-3 6,-5 3,2 4,3 7,5l-2 -9c2,-3 4,-4 6,-7l-8 0 -2 -9 -3 9z"/>
     <path class="fil1" d="M94 99l-8 0c2,4 4,4 6,7l-2 9c2,-1 4,-3 7,-5 2,2 3,3 6,5l-2 -9c2,-2 4,-4 6,-6l-8 -1 -3 -7 -2 7z"/>
     <path class="fil1" d="M22 229l-8 0 6 7 -2 9c3,-2 4,-4 7,-5 2,2 3,4 6,5l-2 -10 4 -4c2,-1 1,-1 2,-2 -11,0 -7,2 -11,-9l-2 9z"/>
     <path class="fil1" d="M135 203l5 6 -2 10c2,-1 4,-3 6,-5 3,1 5,4 7,5l-2 -10 6 -6 -8 0 -2 -9c-4,10 -1,9 -10,9z"/>
     <path class="fil1" d="M135 48l5 6 -2 9c2,-1 4,-3 6,-5 3,2 5,4 7,5l-2 -9 6 -6 -8 0 -2 -10c-4,10 -1,9 -10,10z"/>
     <path class="fil1" d="M238 151l-8 1 7 6 -3 9c3,-1 5,-3 7,-5 2,1 4,4 6,5l-2 -9c3,-4 4,-3 6,-6l-7 -1 -3 -9 -3 9z"/>
     <path class="fil1" d="M94 47l-8 1 6 6 -2 9c2,-1 4,-3 7,-5 2,2 4,4 6,5l-2 -10 4 -3c1,-1 1,-1 2,-2 -10,-1 -7,0 -10,-10l-3 9z"/>
     <path class="fil1" d="M94 151l-8 0c2,4 4,4 6,7l-2 9c3,-1 4,-3 6,-5 3,2 4,3 7,5l-2 -10 6 -6 -8 0 -2 -9 -3 9z"/>
     <path class="fil1" d="M166 177l-8 0c2,3 4,4 6,7l-2 9 7 -5c2,2 3,3 6,5l-2 -9c2,-3 4,-5 6,-7l-8 0 -2 -8c-1,1 -2,6 -3,8z"/>
     <path class="fil1" d="M166 22l-8 0c2,2 4,3 6,6l-2 9 7 -5c2,2 3,4 6,5l-2 -9c2,-2 4,-4 6,-6l-8 0 -2 -9c-1,1 -2,7 -3,9z"/>
     <path class="fil1" d="M22 73l-8 1 6 6 -2 9c3,-1 4,-3 7,-5 2,2 3,4 6,5l-2 -10 6 -5c-11,-1 -7,1 -11,-10l-2 9z"/>
     <path class="fil1" d="M94 203l-8 0 6 6 -2 10c2,-1 4,-4 7,-5 2,2 4,4 6,5l-2 -10 6 -6c-10,0 -7,1 -10,-9l-3 9z"/>
     <path class="fil1" d="M238 99l-8 0c2,3 4,4 6,7l-2 9c3,-2 4,-3 7,-5 2,2 4,3 6,5l-2 -9c2,-3 4,-4 6,-6l-8 -1 -2 -9 -3 9z"/>
     <path class="fil1" d="M118 125l-6 2 4 5 -2 9c3,-2 4,-4 7,-5 2,2 4,4 6,5l-2 -9c3,-3 4,-4 6,-7l-8 0 -2 -9 -3 9z"/>
     <path class="fil1" d="M166 125l-7 0 5 6 -2 10c3,-1 4,-3 7,-5 2,2 3,4 6,5l-2 -10 6 -6 -7 0 -3 -9 -3 9z"/>
    </g>
    <rect class="fil4" x="289" y="245" width="13.4977" height="14.4261"/>
   </g>
   <polygon class="fil5 str0" points="721,0 721,130 721,303 721,433 0,433 0,303 0,130 0,0 "/>
  </g>
 </g>
</svg>
