<?xml version="1.0" encoding="UTF-8"?>
<!DOCTYPE svg PUBLIC "-//W3C//DTD SVG 1.1//EN" "http://www.w3.org/Graphics/SVG/1.1/DTD/svg11.dtd">
<!-- Creator: CorelDRAW X7 -->
<svg xmlns="http://www.w3.org/2000/svg" xml:space="preserve" width="1.15739in" height="1.23054in" version="1.1" style="shape-rendering:geometricPrecision; text-rendering:geometricPrecision; image-rendering:optimizeQuality; fill-rule:evenodd; clip-rule:evenodd"
viewBox="0 0 33241 35341"
 xmlns:xlink="http://www.w3.org/1999/xlink">
 <defs>
  <style type="text/css">
   <![CDATA[
    .fil1 {fill:#F58735}
    .fil0 {fill:#F58735;fill-rule:nonzero}
   ]]>
  </style>
 </defs>
 <g id="Layer_x0020_1">
  <metadata id="CorelCorpID_0Corel-Layer"/>
  <path class="fil0" d="M20210 2490c1440,317 2810,821 4082,1484 1512,788 2887,1802 4081,2995 1530,1530 2764,3361 3608,5398 812,1961 1260,4107 1260,6354 0,2247 -448,4394 -1260,6354 -844,2038 -2078,3868 -3608,5398 -1530,1530 -3361,2764 -5399,3608 -1960,812 -4106,1260 -6354,1260 -2247,0 -4393,-448 -6353,-1260 -2038,-844 -3869,-2078 -5399,-3608 -1530,-1530 -2764,-3360 -3608,-5398 -812,-1960 -1260,-4107 -1260,-6354 0,-2247 448,-4393 1260,-6354 844,-2037 2078,-3868 3608,-5398 1193,-1193 2569,-2207 4081,-2995 1272,-663 2642,-1167 4081,-1484l0 4532c-802,246 -1570,573 -2296,972 -1016,559 -1946,1260 -2764,2077 -1130,1130 -2039,2477 -2657,3970 -596,1439 -925,3019 -925,4680 0,1661 329,3242 925,4680 618,1493 1527,2840 2657,3970 1131,1130 2477,2039 3970,2658 1439,596 3020,925 4680,925 1661,0 3242,-329 4681,-925 1493,-619 2839,-1528 3969,-2658 1130,-1130 2040,-2477 2658,-3970 596,-1438 925,-3019 925,-4680 0,-1661 -329,-3241 -925,-4680 -618,-1493 -1528,-2840 -2658,-3970 -817,-817 -1747,-1518 -2763,-2077 -726,-399 -1494,-726 -2297,-972l0 -4532z"/>
  <rect class="fil1" x="14626" width="3989" height="15632"/>
 </g>
</svg>
