<?xml version="1.0" encoding="UTF-8"?>
<!DOCTYPE svg PUBLIC "-//W3C//DTD SVG 1.1//EN" "http://www.w3.org/Graphics/SVG/1.1/DTD/svg11.dtd">
<!-- Creator: CorelDRAW X7 -->
<svg xmlns="http://www.w3.org/2000/svg" xml:space="preserve" width="1.27285in" height="1.04328in" version="1.1" style="shape-rendering:geometricPrecision; text-rendering:geometricPrecision; image-rendering:optimizeQuality; fill-rule:evenodd; clip-rule:evenodd"
viewBox="0 0 127285 104328"
 xmlns:xlink="http://www.w3.org/1999/xlink">
 <defs>
  <style type="text/css">
   <![CDATA[
    .fil1 {fill:#96989A}
    .fil0 {fill:#F58634}
    .fil2 {fill:#96989A;fill-rule:nonzero}
    .fil4 {fill:#F58634;fill-rule:nonzero}
    .fil3 {fill:#F58634;fill-rule:nonzero}
   ]]>
  </style>
 </defs>
 <g id="Layer_x0020_1">
  <metadata id="CorelCorpID_0Corel-Layer"/>
  <g id="_933733632">
   <path class="fil0" d="M48088 83114c4863,776 9941,1190 15167,1190 17266,0 32934,-4491 44449,-11792 -14125,-20659 -35322,-49543 -57521,-57757 -5225,-1937 -10614,-2906 -16133,-2906 -5813,0 -10595,1146 -14381,3404 -3759,2265 -5641,5096 -5641,8500 0,1330 306,2572 907,3691 593,1118 1548,2189 2783,3165 3166,2354 9994,3882 20520,4523 4830,286 8589,573 11236,901 7804,879 13992,3383 18562,7524 4551,4141 6835,9210 6835,15261 0,7183 -3116,13111 -9379,17757 -4705,3485 -10507,5668 -17404,6539z"/>
   <path class="fil1" d="M121343 59770c3810,-5386 5942,-11387 5942,-17718 0,-6330 -2131,-12332 -5942,-17717l0 35435z"/>
   <path class="fil0" d="M23264 71357c5881,2209 11713,3328 17471,3328 7115,0 12901,-1500 17328,-4523 4454,-3022 6665,-6904 6665,-11637 0,-3767 -1590,-6857 -4783,-9285 -9460,-7197 -32481,-3575 -44962,-9237 -3575,-1740 -6311,-3950 -8166,-6665 -1504,-2217 -2398,-4639 -2684,-7290 -10011,18518 -1142,37593 19131,45309z"/>
   <path class="fil1" d="M111772 14616c-11742,-8949 -29122,-14616 -48517,-14616 -8360,0 -16344,1054 -23665,2968 4478,440 8915,1398 13308,2886 24967,8456 45281,33792 58874,53910l0 -45148z"/>
   <path class="fil2" d="M645 103143l427 -632c418,322 851,569 1302,740 450,170 897,255 1338,255 545,0 988,-115 1328,-346 340,-232 510,-529 510,-892 0,-288 -122,-525 -367,-711 -244,-186 -581,-297 -1011,-334 -104,-11 -254,-22 -449,-30 -970,-69 -1630,-182 -1984,-343 -272,-133 -483,-303 -625,-511 -142,-209 -213,-442 -213,-704 0,-473 211,-863 636,-1172 423,-306 973,-459 1650,-459 492,0 978,80 1457,243 479,161 935,402 1365,720l-426 612c-365,-293 -746,-514 -1147,-664 -401,-147 -813,-222 -1236,-222 -444,0 -811,87 -1102,261 -288,172 -431,390 -431,651 0,102 23,197 68,282 46,86 119,168 214,243 243,180 766,296 1572,346 370,22 658,44 860,69 598,68 1073,259 1423,576 347,317 522,706 522,1169 0,550 -238,1005 -718,1360 -480,355 -1108,534 -1885,534 -587,0 -1134,-85 -1637,-255 -505,-171 -985,-432 -1441,-786zm18601 -5008l0 3817c0,611 116,1022 345,1232 230,207 681,311 1355,311 673,0 1124,-104 1351,-311 228,-210 341,-621 341,-1232l0 -3817 733 0 0 4015c0,726 -188,1247 -565,1563 -378,314 -999,471 -1864,471 -864,0 -1486,-157 -1863,-471 -377,-316 -565,-837 -565,-1563l0 -4015 732 0zm17384 2625l2603 0c371,0 651,-82 841,-245 192,-163 286,-403 286,-720 0,-309 -94,-552 -286,-722 -190,-174 -458,-260 -804,-260l-2640 0 0 1947zm-733 3271l0 -5896 3384 0c572,0 1022,142 1350,427 331,284 495,674 495,1168 0,513 -158,928 -478,1244 -317,317 -742,475 -1270,475l-2748 0 0 2582 -733 0zm17371 0l0 -5896 4637 0 0 678 -3905 0 0 1729 2363 0 0 678 -2363 0 0 2133 4146 0 0 678 -4878 0zm17598 -3271l2603 0c370,0 650,-82 841,-245 191,-163 285,-403 285,-720 0,-309 -94,-552 -285,-722 -191,-174 -458,-260 -804,-260l-2640 0 0 1947zm-734 3271l0 -5896 3384 0c576,0 1027,146 1355,436 326,289 491,691 491,1203 0,426 -128,791 -383,1096 -257,304 -595,494 -1014,568l1473 2593 -810 0 -1475 -2582 -2287 0 0 2582 -734 0z"/>
   <path class="fil3" d="M87625 104029l0 -5896 385 0 3827 4407 0 -4407 732 0 0 5896 -373 0 -3838 -4406 0 4406 -733 0zm17631 0l0 -5896 4638 0 0 678 -3905 0 0 1728 2363 0 0 679 -2363 0 0 2132 4146 0 0 679 -4879 0zm17927 0l0 -5218 -2484 0 0 -678 5700 0 0 678 -2484 0 0 5218 -732 0z"/>
   <path class="fil4" d="M87326 104029l0 -5896 0 -299 299 0 385 0 135 0 91 104 3302 3803 0 -3608 0 -299 299 0 732 0 300 0 0 299 0 5896 0 299 -300 0 -373 0 -136 0 -90 -103 -3313 -3804 0 3608 0 299 -299 0 -733 0 -299 0 0 -299zm599 -5540l0 5241 134 0 0 -4107 525 -197 3686 4233 0 -5227 -134 0 0 4108 -524 195 -3687 -4246zm17032 5540l0 -5896 0 -299 299 0 4638 0 299 0 0 299 0 678 0 299 -299 0 -3606 0 0 1130 2064 0 299 0 0 299 0 679 0 299 -299 0 -2064 0 0 1534 3847 0 300 0 0 299 0 679 0 299 -300 0 -4879 0 -299 0 0 -299zm599 -5597l0 5298 4280 0 0 -80 -3847 0 -299 0 0 -300 0 -2132 0 -299 299 0 2063 0 0 -80 -2063 0 -299 0 0 -300 0 -1728 0 -299 299 0 3606 0 0 -80 -4039 0zm17327 5597l0 -4919 -2184 0 -299 0 0 -299 0 -678 0 -299 299 0 5700 0 299 0 0 299 0 678 0 299 -299 0 -2184 0 0 4919 0 299 -300 0 -732 0 -300 0 0 -299zm599 -5218l0 4919 134 0 0 -4919 0 -299 299 0 2185 0 0 -80 -5102 0 0 80 2185 0 299 0 0 299z"/>
  </g>
 </g>
</svg>
