<?xml version="1.0" encoding="UTF-8"?>
<!DOCTYPE svg PUBLIC "-//W3C//DTD SVG 1.1//EN" "http://www.w3.org/Graphics/SVG/1.1/DTD/svg11.dtd">
<!-- Creator: CorelDRAW X7 -->
<svg xmlns="http://www.w3.org/2000/svg" xml:space="preserve" width="0.325839in" height="0.22in" version="1.1" style="shape-rendering:geometricPrecision; text-rendering:geometricPrecision; image-rendering:optimizeQuality; fill-rule:evenodd; clip-rule:evenodd"
viewBox="0 0 4567 2803"
 xmlns:xlink="http://www.w3.org/1999/xlink">
 <defs>
  <style type="text/css">
   <![CDATA[
    .fil0 {fill:#FEFEFE}
   ]]>
  </style>
 </defs>
 <g id="Layer_x0020_1_0">
  <metadata id="CorelCorpID_0Corel-Layer"/>
  <path class="fil0" d="M0 0l610 0 -213 587 652 0 -278 667 -586 0 -185 489 0 -1743zm3290 2803l-1824 0c31,-70 59,-148 82,-238l271 -747 1582 0c0,0 118,-440 213,-564l-1568 0 249 -704 1431 0 87 0 754 0 0 0 -669 339c20,118 31,240 31,365 0,604 -244,1152 -639,1549zm-3290 -39l0 -909 566 0c0,0 -212,856 -432,909l-134 0z"/>
 </g>
</svg>
