<?xml version="1.0" encoding="UTF-8"?>
<!DOCTYPE svg PUBLIC "-//W3C//DTD SVG 1.1//EN" "http://www.w3.org/Graphics/SVG/1.1/DTD/svg11.dtd">
<!-- Creator: CorelDRAW X7 -->
<svg xmlns="http://www.w3.org/2000/svg" xml:space="preserve" width="2.53333in" height="0.333335in" version="1.1" style="shape-rendering:geometricPrecision; text-rendering:geometricPrecision; image-rendering:optimizeQuality; fill-rule:evenodd; clip-rule:evenodd"
viewBox="0 0 3171 417"
 xmlns:xlink="http://www.w3.org/1999/xlink">
 <defs>
  <style type="text/css">
   <![CDATA[
    .fil2 {fill:none}
    .fil0 {fill:#F58634}
    .fil1 {fill:white}
    .fil3 {fill:#FEFEFE;fill-rule:nonzero}
   ]]>
  </style>
    <clipPath id="id0">
     <path d="M0 0l3171 0 0 417 -3171 0 0 -417z"/>
    </clipPath>
 </defs>
 <g id="Layer_x0020_1_0">
  <metadata id="CorelCorpID_0Corel-Layer"/>
  <g id="_2337766928">
   <polygon class="fil0" points="0,0 3171,0 3171,417 0,417 "/>
   <g style="clip-path:url(#id0)">
    <g>
     <g>
      <polygon id="1" class="fil1" points="508,304 676,205 509,110 "/>
      <polygon class="fil1" points="-52,412 114,316 -52,220 "/>
      <polygon class="fil1" points="308,-211 143,-116 308,-20 "/>
      <polygon class="fil1" points="323,629 327,629 487,530 321,435 "/>
      <polygon class="fil1" points="322,-211 322,-19 490,-115 "/>
      <polygon class="fil1" points="508,88 676,-6 510,-104 "/>
      <polygon class="fil1" points="518,97 684,195 684,5 "/>
      <path class="fil1" d="M135 88l165 -95c-54,-33 -109,-65 -163,-97l-2 192z"/>
      <polygon class="fil1" points="508,519 673,423 509,326 "/>
      <polygon class="fil1" points="-42,421 122,519 122,328 "/>
      <polygon class="fil1" points="331,421 496,519 496,328 "/>
      <polygon class="fil1" points="-41,205 121,304 122,112 "/>
      <polygon class="fil1" points="-52,196 112,100 -52,4 "/>
      <polygon class="fil1" points="-40,-6 122,89 122,-103 "/>
      <polygon class="fil1" points="304,629 307,629 308,434 147,529 "/>
      <polygon class="fil1" points="520,318 682,412 682,221 "/>
      <polygon class="fil1" points="135,519 300,426 135,327 "/>
      <polygon class="fil1" points="333,-6 495,89 495,-103 "/>
     </g>
    </g>
   </g>
   <polygon class="fil2" points="0,0 3171,0 3171,417 0,417 "/>
   <path class="fil3" d="M941 165c-10,0 -18,4 -24,12 -6,7 -8,18 -8,32 0,29 10,43 32,43 9,0 20,-2 33,-6l0 23c-11,4 -22,6 -36,6 -18,0 -33,-5 -43,-17 -10,-11 -15,-28 -15,-49 0,-14 3,-25 8,-35 5,-11 12,-18 21,-24 9,-5 20,-8 32,-8 13,0 25,3 38,9l-9 23c-5,-3 -10,-5 -15,-6 -4,-2 -9,-3 -14,-3zm140 108l-9 -30 -48 0 -9 30 -30 0 46 -130 34 0 46 130 -30 0zm-16 -53c-9,-28 -14,-44 -15,-48 -1,-3 -2,-6 -2,-8 -2,7 -8,26 -17,56l34 0zm138 18c0,11 -4,20 -12,27 -9,7 -20,10 -35,10 -14,0 -27,-2 -37,-8l0 -25c9,4 16,7 22,8 6,2 12,3 17,3 6,0 10,-2 14,-4 3,-2 4,-6 4,-10 0,-3 0,-5 -2,-7 -1,-2 -3,-4 -6,-6 -3,-1 -8,-4 -17,-8 -8,-4 -14,-8 -18,-11 -4,-4 -7,-8 -9,-12 -2,-5 -4,-10 -4,-16 0,-11 4,-20 12,-27 8,-7 19,-10 32,-10 7,0 13,1 19,3 7,1 13,3 20,6l-9 22c-7,-3 -13,-5 -17,-6 -5,-1 -9,-2 -14,-2 -5,0 -9,1 -12,4 -2,2 -4,5 -4,9 0,3 1,5 2,6 1,2 3,4 5,6 3,1 8,4 18,9 12,6 20,11 25,17 4,6 6,13 6,22zm130 35l-28 0 0 -55 -51 0 0 55 -27 0 0 -129 27 0 0 51 51 0 0 -51 28 0 0 129zm197 -64c0,21 -5,37 -16,49 -10,12 -26,17 -45,17 -20,0 -36,-5 -46,-17 -11,-12 -16,-28 -16,-50 0,-21 5,-38 16,-49 11,-11 26,-17 46,-17 20,0 35,6 45,17 11,12 16,28 16,50zm-94 0c0,14 2,25 8,32 5,8 14,11 25,11 21,0 32,-14 32,-43 0,-30 -10,-44 -32,-44 -11,0 -19,3 -25,11 -6,7 -8,18 -8,33zm148 -4l9 0c9,0 15,-2 19,-5 5,-3 7,-8 7,-15 0,-6 -2,-11 -6,-14 -3,-3 -9,-5 -16,-5l-13 0 0 39zm62 -21c0,14 -4,25 -13,32 -8,8 -21,11 -37,11l-12 0 0 46 -27 0 0 -129 41 0c16,0 28,3 36,10 8,7 12,17 12,30zm99 89l-74 0 0 -129 74 0 0 22 -47 0 0 29 44 0 0 22 -44 0 0 34 47 0 0 22zm55 -72l9 0c8,0 15,-1 19,-4 4,-3 6,-7 6,-14 0,-6 -2,-10 -6,-13 -4,-2 -11,-4 -20,-4l-8 0 0 35zm0 23l0 49 -28 0 0 -129 38 0c18,0 31,3 39,10 9,6 13,16 13,29 0,7 -2,14 -6,20 -5,6 -10,11 -18,14 19,29 32,48 38,56l-31 0 -30 -49 -15 0zm172 49l-10 -30 -47 0 -9 30 -30 0 46 -130 33 0 46 130 -29 0zm-16 -53c-9,-28 -14,-44 -15,-48 -1,-3 -2,-6 -2,-8 -2,7 -8,26 -17,56l34 0zm99 53l-28 0 0 -106 -35 0 0 -23 98 0 0 23 -35 0 0 106zm55 0l0 -129 27 0 0 129 -27 0zm177 -64c0,21 -5,37 -16,49 -10,12 -25,17 -45,17 -20,0 -35,-5 -46,-17 -11,-12 -16,-28 -16,-50 0,-21 5,-38 16,-49 11,-11 26,-17 46,-17 20,0 35,6 46,17 10,12 15,28 15,50zm-94 0c0,14 3,25 8,32 6,8 14,11 25,11 22,0 33,-14 33,-43 0,-30 -11,-44 -33,-44 -11,0 -19,3 -25,11 -5,7 -8,18 -8,33zm236 64l-35 0 -56 -98 -1 0c1,18 2,30 2,38l0 60 -25 0 0 -129 35 0 56 97 1 0c-1,-17 -2,-29 -2,-36l0 -61 25 0 0 129zm109 -35c0,11 -4,20 -13,27 -8,7 -20,10 -35,10 -13,0 -26,-2 -36,-8l0 -25c8,4 16,7 22,8 6,2 11,3 16,3 7,0 11,-2 14,-4 4,-2 5,-6 5,-10 0,-3 0,-5 -2,-7 -1,-2 -3,-4 -6,-6 -3,-1 -9,-4 -17,-8 -8,-4 -14,-8 -18,-11 -4,-4 -7,-8 -9,-12 -3,-5 -4,-10 -4,-16 0,-11 4,-20 12,-27 8,-7 18,-10 32,-10 7,0 13,1 19,3 6,1 13,3 19,6l-8 22c-7,-3 -13,-5 -17,-6 -5,-1 -9,-2 -14,-2 -5,0 -9,1 -12,4 -3,2 -4,5 -4,9 0,3 1,5 2,6 1,2 3,4 5,6 3,1 8,4 17,9 13,6 21,11 25,17 5,6 7,13 7,22z"/>
  </g>
 </g>
</svg>
