<?xml version="1.0" encoding="UTF-8"?>
<!DOCTYPE svg PUBLIC "-//W3C//DTD SVG 1.1//EN" "http://www.w3.org/Graphics/SVG/1.1/DTD/svg11.dtd">
<!-- Creator: CorelDRAW X7 -->
<svg xmlns="http://www.w3.org/2000/svg" xml:space="preserve" width="2.53333in" height="0.333335in" version="1.1" style="shape-rendering:geometricPrecision; text-rendering:geometricPrecision; image-rendering:optimizeQuality; fill-rule:evenodd; clip-rule:evenodd"
viewBox="0 0 3171 417"
 xmlns:xlink="http://www.w3.org/1999/xlink">
 <defs>
  <style type="text/css">
   <![CDATA[
    .fil2 {fill:none}
    .fil1 {fill:#FEFEFE}
    .fil0 {fill:#F58634}
    .fil3 {fill:#FEFEFE;fill-rule:nonzero}
   ]]>
  </style>
    <clipPath id="id0">
     <path d="M0 0l3171 0 0 417 -3171 0 0 -417z"/>
    </clipPath>
 </defs>
 <g id="Layer_x0020_1_0">
  <metadata id="CorelCorpID_0Corel-Layer"/>
  <g id="_1281327888">
   <polygon class="fil0" points="0,0 3171,0 3171,417 0,417 "/>
   <g style="clip-path:url(#id0)">
    <g>
     <path id="1" class="fil1" d="M267 -209c230,0 417,187 417,418 0,230 -187,417 -417,417 -231,0 -418,-187 -418,-417 0,-231 187,-418 418,-418zm-147 618l0 -160 -44 0 0 -74 44 0 0 -166 144 0c22,0 47,0 69,5 22,5 43,15 61,30 22,19 38,43 48,70 11,30 16,61 16,93 0,26 -3,53 -11,78 -6,21 -15,41 -27,59 -11,14 -23,27 -38,37 -15,10 -32,17 -50,21 -20,5 -41,7 -62,7l-150 0zm88 -234l71 0 0 74 -71 0 0 77 56 0c16,0 35,-1 50,-5 9,-3 18,-8 24,-14 10,-10 17,-24 22,-38 6,-20 8,-42 8,-63 0,-24 -3,-55 -16,-77 -8,-13 -19,-26 -35,-32 -14,-5 -39,-6 -54,-6l-55 0 0 84z"/>
    </g>
   </g>
   <polygon class="fil2" points="0,0 3171,0 3171,417 0,417 "/>
   <path class="fil3" d="M1030 165c-10,0 -18,4 -24,12 -5,7 -8,18 -8,32 0,29 11,43 32,43 9,0 20,-2 33,-6l0 23c-10,4 -22,6 -35,6 -19,0 -34,-5 -44,-17 -10,-11 -15,-28 -15,-49 0,-14 3,-25 8,-35 5,-11 12,-18 21,-24 9,-5 20,-8 32,-8 13,0 25,3 38,9l-9 23c-5,-3 -9,-5 -14,-6 -5,-2 -10,-3 -15,-3zm175 44c0,21 -6,37 -16,49 -11,12 -26,17 -46,17 -20,0 -35,-5 -46,-17 -10,-12 -16,-28 -16,-50 0,-21 6,-38 16,-49 11,-11 26,-17 46,-17 20,0 35,6 46,17 10,12 16,28 16,50zm-95 0c0,14 3,25 8,32 6,8 14,11 25,11 22,0 33,-14 33,-43 0,-30 -11,-44 -33,-44 -11,0 -19,3 -24,11 -6,7 -9,18 -9,33zm122 64l0 -129 27 0 0 129 -27 0zm174 0l-34 0 -57 -98 -1 0c2,18 2,30 2,38l0 60 -24 0 0 -129 34 0 56 97 1 0c-1,-17 -1,-29 -1,-36l0 -61 24 0 0 129zm198 -64c0,21 -6,37 -16,49 -11,12 -26,17 -46,17 -20,0 -35,-5 -46,-17 -10,-12 -16,-28 -16,-50 0,-21 6,-38 16,-49 11,-11 26,-17 46,-17 20,0 35,6 46,17 10,12 16,28 16,50zm-95 0c0,14 3,25 8,32 6,8 14,11 25,11 22,0 33,-14 33,-43 0,-30 -11,-44 -33,-44 -11,0 -19,3 -25,11 -5,7 -8,18 -8,33zm149 -4l9 0c8,0 15,-2 19,-5 4,-3 6,-8 6,-15 0,-6 -2,-11 -5,-14 -4,-3 -9,-5 -17,-5l-12 0 0 39zm62 -21c0,14 -4,25 -13,32 -9,8 -21,11 -37,11l-12 0 0 46 -27 0 0 -129 41 0c16,0 28,3 36,10 8,7 12,17 12,30zm99 89l-75 0 0 -129 75 0 0 22 -47 0 0 29 44 0 0 22 -44 0 0 34 47 0 0 22zm54 -72l9 0c9,0 15,-1 19,-4 5,-3 7,-7 7,-14 0,-6 -2,-10 -7,-13 -4,-2 -10,-4 -19,-4l-9 0 0 35zm0 23l0 49 -27 0 0 -129 38 0c17,0 30,3 39,10 8,6 12,16 12,29 0,7 -2,14 -6,20 -4,6 -10,11 -18,14 20,29 33,48 38,56l-30 0 -31 -49 -15 0zm172 49l-9 -30 -48 0 -9 30 -30 0 46 -130 34 0 46 130 -30 0zm-16 -53c-9,-28 -14,-44 -15,-48 -1,-3 -1,-6 -2,-8 -2,7 -7,26 -17,56l34 0zm99 53l-27 0 0 -106 -35 0 0 -23 97 0 0 23 -35 0 0 106zm55 0l0 -129 28 0 0 129 -28 0zm178 -64c0,21 -5,37 -16,49 -11,12 -26,17 -46,17 -20,0 -35,-5 -45,-17 -11,-12 -16,-28 -16,-50 0,-21 5,-38 16,-49 10,-11 26,-17 45,-17 20,0 36,6 46,17 11,12 16,28 16,50zm-95 0c0,14 3,25 9,32 5,8 13,11 24,11 22,0 33,-14 33,-43 0,-30 -11,-44 -33,-44 -11,0 -19,3 -24,11 -6,7 -9,18 -9,33zm237 64l-35 0 -57 -98 0 0c1,18 1,30 1,38l0 60 -24 0 0 -129 34 0 57 97 0 0c-1,-17 -1,-29 -1,-36l0 -61 25 0 0 129zm109 -35c0,11 -5,20 -13,27 -8,7 -20,10 -35,10 -14,0 -26,-2 -37,-8l0 -25c9,4 16,7 22,8 6,2 12,3 17,3 6,0 11,-2 14,-4 3,-2 5,-6 5,-10 0,-3 -1,-5 -2,-7 -2,-2 -4,-4 -7,-6 -2,-1 -8,-4 -16,-8 -8,-4 -14,-8 -18,-11 -4,-4 -7,-8 -10,-12 -2,-5 -3,-10 -3,-16 0,-11 4,-20 11,-27 8,-7 19,-10 33,-10 6,0 13,1 19,3 6,1 12,3 19,6l-9 22c-7,-3 -12,-5 -17,-6 -5,-1 -9,-2 -13,-2 -6,0 -10,1 -12,4 -3,2 -4,5 -4,9 0,3 0,5 1,6 1,2 3,4 6,6 2,1 8,4 17,9 12,6 20,11 25,17 4,6 7,13 7,22z"/>
  </g>
 </g>
</svg>
