<?xml version="1.0" encoding="UTF-8"?>
<!DOCTYPE svg PUBLIC "-//W3C//DTD SVG 1.1//EN" "http://www.w3.org/Graphics/SVG/1.1/DTD/svg11.dtd">
<!-- Creator: CorelDRAW X7 -->
<svg xmlns="http://www.w3.org/2000/svg" xml:space="preserve" width="2.53333in" height="0.333335in" version="1.1" style="shape-rendering:geometricPrecision; text-rendering:geometricPrecision; image-rendering:optimizeQuality; fill-rule:evenodd; clip-rule:evenodd"
viewBox="0 0 3171 417"
 xmlns:xlink="http://www.w3.org/1999/xlink">
 <defs>
  <style type="text/css">
   <![CDATA[
    .fil1 {fill:none}
    .fil2 {fill:#FEFEFE}
    .fil0 {fill:#F58634}
    .fil3 {fill:#FEFEFE;fill-rule:nonzero}
   ]]>
  </style>
    <clipPath id="id0">
     <path d="M0 0l3171 0 0 417 -3171 0 0 -417z"/>
    </clipPath>
 </defs>
 <g id="Layer_x0020_1_0">
  <metadata id="CorelCorpID_0Corel-Layer"/>
  <g id="_1283028688">
   <polygon class="fil0" points="0,0 3171,0 3171,417 0,417 "/>
   <g style="clip-path:url(#id0)">
    <g>
     <g>
      <g>
       <path id="1" class="fil1" d="M324 297l0 -85m0 -81l124 0c22,0 41,18 41,40 0,22 -19,41 -41,41l-124 0m0 -81l0 -69 138 0c58,0 105,47 105,105l0 25c0,58 -47,105 -105,105l-138 0 0 -85m0 -81l0 -69"/>
       <polygon class="fil2" points="285,449 285,188 190,188 190,322 61,188 -57,188 196,449 "/>
       <path class="fil2" d="M324 295l0 -85 124 0c22,0 41,-18 41,-40 0,-22 -19,-41 -41,-41l-124 0 0 -68 138 0c58,0 105,47 105,104l0 26c0,57 -47,104 -105,104l-138 0z"/>
       <polygon class="fil2" points="204,61 277,61 286,70 286,143 277,151 204,151 196,143 196,70 "/>
       <polygon class="fil2" points="121,62 169,62 175,67 175,116 169,122 121,122 115,116 115,67 "/>
       <polygon class="fil2" points="206,-13 250,-13 255,-8 255,36 250,42 206,42 200,36 200,-8 "/>
       <polygon class="fil2" points="119,-13 163,-13 168,-8 168,36 163,42 119,42 114,36 114,-8 "/>
       <polygon class="fil2" points="56,-14 89,-14 92,-10 92,23 89,26 56,26 52,23 52,-10 "/>
       <polygon class="fil2" points="114,-69 147,-69 151,-65 151,-33 147,-29 114,-29 111,-33 111,-65 "/>
       <polygon class="fil2" points="54,-64 78,-64 81,-61 81,-38 78,-35 54,-35 52,-38 52,-61 "/>
       <polygon class="fil2" points="9,-98 33,-98 35,-95 35,-72 33,-69 9,-69 6,-72 6,-95 "/>
       <path class="fil2" d="M382 370c75,13 125,38 125,67 0,43 -117,78 -260,78 -143,0 -259,-35 -259,-78 0,-29 49,-54 124,-67 -49,12 -80,30 -80,50 0,36 96,65 215,65 119,0 216,-29 216,-65 0,-20 -32,-38 -81,-50z"/>
      </g>
      <path class="fil2" d="M255 638l0 0c3,0 7,0 10,0l1 0c4,0 7,-1 10,-1l1 0c3,0 7,0 10,0l1 0c3,-1 7,-1 10,-1l1 0c3,-1 7,-1 10,-2l0 0c4,0 7,-1 11,-1l1 0c3,-1 6,-1 9,-2l1 0c3,-1 7,-1 10,-2l0 0c4,-1 7,-1 10,-2l1 0c3,-1 6,-2 9,-3l1 0c3,-1 7,-1 10,-2 0,0 0,-1 1,-1 3,0 6,-1 9,-2l1 -1c3,-1 6,-2 9,-2l1 -1c3,-1 6,-2 9,-3l1 0c3,-1 5,-3 8,-4 1,0 1,0 2,0 2,-1 5,-2 8,-4l1 0c3,-1 6,-3 8,-4l2 0c3,-2 5,-3 8,-4 0,0 1,0 1,-1 3,-1 6,-2 8,-4 1,0 1,0 2,-1 2,-1 5,-2 7,-3 1,-1 1,-1 2,-1 2,-2 5,-3 7,-4 1,-1 1,-1 2,-1 2,-2 5,-3 7,-5 1,0 2,-1 2,-1 2,-1 5,-3 7,-4 0,0 1,-1 2,-1 2,-2 4,-3 7,-5 0,0 1,-1 2,-1 2,-2 4,-3 6,-5 1,0 1,-1 2,-1 2,-2 4,-3 6,-5 1,0 2,-1 2,-1 2,-2 5,-3 7,-5l0 0c49,-39 90,-88 119,-144l0 0c1,-2 2,-5 3,-7 0,-1 1,-2 1,-3 1,-2 2,-4 3,-6 1,-1 1,-2 2,-3 1,-2 2,-5 2,-7 1,-1 1,-2 2,-3 1,-2 2,-4 2,-7 1,0 1,-1 2,-2 1,-3 1,-5 2,-8 1,0 1,-1 1,-2 1,-2 2,-5 3,-7 0,-1 0,-2 1,-3 1,-3 1,-5 2,-8 0,0 1,-1 1,-2 1,-3 1,-5 2,-8 0,0 1,-1 1,-2 1,-3 1,-5 2,-8l1 -2c0,-3 1,-6 2,-9l0 -1c1,-3 1,-6 2,-9l0 -1c1,-4 1,-7 2,-10l0 -1c1,-3 1,-6 2,-10l0 0c0,-4 1,-7 1,-11l0 0c1,-3 1,-7 2,-10l0 -1c0,-3 0,-7 1,-10l0 0c0,-4 0,-8 0,-11l0 0c0,-4 1,-8 1,-11l0 -1c0,-3 0,-7 0,-10 0,-4 0,-8 0,-11l0 -1c0,-3 -1,-7 -1,-10l0 -1c0,-3 0,-7 0,-10l0 -1c-1,-3 -1,-7 -1,-10l0 -1c-1,-3 -1,-6 -2,-10l0 -1c0,-3 -1,-6 -1,-9l0 -1c-1,-3 -1,-6 -2,-9 0,-1 0,-2 0,-2 -1,-3 -1,-6 -2,-9 0,-1 0,-1 0,-2 -1,-3 -1,-6 -2,-8 0,-1 0,-2 0,-3 -1,-2 -2,-5 -2,-7 -1,-1 -1,-2 -1,-3 -1,-2 -1,-5 -2,-7 0,-1 -1,-3 -1,-4 -1,-2 -1,-4 -2,-6 0,-1 -1,-3 -1,-4 -1,-2 -1,-4 -2,-6 0,-1 -1,-3 -2,-4 0,-2 -1,-4 -1,-6 -1,-1 -2,-3 -2,-5 -1,-1 -1,-3 -2,-4 -1,-2 -1,-4 -2,-6 -1,-1 -1,-2 -2,-3 -1,-3 -2,-5 -3,-7 0,-1 0,-2 -1,-2 -1,-3 -2,-5 -3,-8l-1 -1c-1,-3 -2,-5 -3,-8l0 0c-2,-4 -4,-7 -6,-11l0 0 0 0c-72,-136 -215,-229 -379,-229 -165,0 -308,93 -380,229l0 0c-3,6 -6,12 -9,19l-1 1c-1,3 -2,5 -3,8 -1,0 -1,1 -1,2 -1,2 -2,4 -3,7 -1,1 -1,2 -2,3 0,2 -1,4 -2,6 0,1 -1,3 -2,4 0,2 -1,4 -1,6 -1,1 -2,3 -2,4 -1,2 -1,4 -2,5 -1,2 -1,4 -2,6 0,1 -1,3 -1,4 -1,2 -1,4 -2,6 0,1 -1,3 -1,4 -1,2 -1,5 -2,7 0,1 0,2 0,3 -1,2 -2,5 -2,7 -1,1 -1,2 -1,3 -1,2 -1,5 -2,8 0,1 0,1 0,2 -1,3 -1,6 -2,9 0,0 0,1 0,2 -1,3 -1,6 -2,9l0 1c0,3 -1,6 -1,9l0 1c-1,4 -1,7 -1,10l0 1c-1,3 -1,7 -1,10l0 1c-1,3 -1,7 -1,10l0 1c0,3 0,7 -1,10l0 1c0,3 0,7 0,11 0,3 0,7 0,10l1 1c0,3 0,7 0,10l0 1c0,3 0,7 1,10l0 1c0,3 0,7 1,10l0 1c0,3 0,7 1,10l0 0c0,4 1,7 1,11l0 1c1,3 1,6 2,9l0 1c1,3 1,6 2,10 0,0 0,0 0,1 1,3 1,6 2,9l1 1c0,3 1,6 2,9l0 2c1,3 2,5 2,8 1,1 1,2 1,2 1,3 1,5 2,8 1,1 1,2 1,2 1,3 2,5 2,8 1,1 1,2 1,3 1,2 2,5 3,7 0,1 1,2 1,2 1,3 2,5 3,8 0,1 0,2 1,3 1,2 2,4 3,6 0,1 0,2 1,3 1,2 2,5 3,7 0,1 1,2 1,3 1,2 2,4 3,6 0,1 1,2 1,3 2,2 3,5 4,7l0 0c33,66 83,122 144,162l0 0c1,1 2,2 3,3 1,0 2,1 3,2 1,0 3,1 4,2 1,0 2,1 3,2 0,0 1,1 2,1 1,1 3,2 4,2 1,1 1,1 2,2 2,1 3,1 4,2 1,1 2,1 2,1 2,1 4,2 5,3 1,0 1,1 2,1 2,1 3,2 5,2 0,1 1,1 2,2 1,0 3,1 4,2 1,0 2,1 2,1 2,1 3,1 4,2 1,0 2,1 3,1 1,1 2,1 3,2 2,0 3,1 4,2 1,0 2,0 3,1 1,0 3,1 4,2 1,0 2,0 3,1 1,0 3,1 4,2 1,0 2,0 3,1 1,0 2,1 3,1 2,1 3,1 4,1 1,1 2,1 3,2 1,0 3,1 4,1 1,0 2,1 3,1 1,1 2,1 4,1 1,1 2,1 3,2 1,0 2,0 3,1 2,0 3,1 5,1 0,0 1,1 2,1 2,0 3,1 5,1 1,1 1,1 2,1 2,0 3,1 5,1 1,1 2,1 2,1 2,0 4,1 6,1 0,1 1,1 2,1 1,0 3,1 5,1 1,0 1,1 2,1 2,0 4,1 6,1 0,0 1,0 1,0 2,1 4,1 6,2 1,0 1,0 2,0 2,0 4,1 6,1l1 0c2,1 4,1 6,1 0,0 1,0 1,0 2,1 4,1 6,1l1 1c3,0 5,0 7,0l1 1c2,0 4,0 6,0l2 0c2,1 4,1 6,1l1 0c3,0 5,1 7,1l1 0c2,0 5,0 7,0l1 0c2,0 4,0 7,1l1 0c2,0 4,0 7,0l0 0c3,0 5,0 8,0l0 0zm233 -93l-14 -1c-63,41 -138,65 -219,65 -72,0 -140,-19 -198,-52l-13 3c-71,-43 -128,-107 -163,-183 2,-4 3,-9 5,-12 -21,-48 -32,-101 -32,-156 0,-55 11,-106 30,-153l-3 -16c65,-142 208,-241 374,-241 166,0 309,99 373,241l-3 16c19,47 30,98 30,153 0,55 -11,108 -31,156 1,3 2,8 4,12 -31,68 -79,126 -140,168z"/>
     </g>
    </g>
   </g>
   <polygon class="fil1" points="0,0 3171,0 3171,417 0,417 "/>
   <path class="fil3" d="M941 165c-10,0 -18,4 -24,12 -6,7 -8,18 -8,32 0,29 10,43 32,43 9,0 20,-2 33,-6l0 23c-11,4 -22,6 -36,6 -18,0 -33,-5 -43,-17 -10,-11 -15,-28 -15,-49 0,-14 3,-25 8,-35 5,-11 12,-18 21,-24 9,-5 20,-8 32,-8 13,0 25,3 38,9l-9 23c-5,-3 -10,-5 -15,-6 -4,-2 -9,-3 -14,-3zm140 108l-9 -30 -48 0 -9 30 -30 0 46 -130 34 0 46 130 -30 0zm-16 -53c-9,-28 -14,-44 -15,-48 -1,-3 -2,-6 -2,-8 -2,7 -8,26 -17,56l34 0zm138 18c0,11 -4,20 -12,27 -9,7 -20,10 -35,10 -14,0 -27,-2 -37,-8l0 -25c9,4 16,7 22,8 6,2 12,3 17,3 6,0 10,-2 14,-4 3,-2 4,-6 4,-10 0,-3 0,-5 -2,-7 -1,-2 -3,-4 -6,-6 -3,-1 -8,-4 -17,-8 -8,-4 -14,-8 -18,-11 -4,-4 -7,-8 -9,-12 -2,-5 -4,-10 -4,-16 0,-11 4,-20 12,-27 8,-7 19,-10 32,-10 7,0 13,1 19,3 7,1 13,3 20,6l-9 22c-7,-3 -13,-5 -17,-6 -5,-1 -9,-2 -14,-2 -5,0 -9,1 -12,4 -2,2 -4,5 -4,9 0,3 1,5 2,6 1,2 3,4 5,6 3,1 8,4 18,9 12,6 20,11 25,17 4,6 6,13 6,22zm130 35l-28 0 0 -55 -51 0 0 55 -27 0 0 -129 27 0 0 51 51 0 0 -51 28 0 0 129zm197 -64c0,21 -5,37 -16,49 -10,12 -26,17 -45,17 -20,0 -36,-5 -46,-17 -11,-12 -16,-28 -16,-50 0,-21 5,-38 16,-49 11,-11 26,-17 46,-17 20,0 35,6 45,17 11,12 16,28 16,50zm-94 0c0,14 2,25 8,32 5,8 14,11 25,11 21,0 32,-14 32,-43 0,-30 -10,-44 -32,-44 -11,0 -19,3 -25,11 -6,7 -8,18 -8,33zm148 -4l9 0c9,0 15,-2 19,-5 5,-3 7,-8 7,-15 0,-6 -2,-11 -6,-14 -3,-3 -9,-5 -16,-5l-13 0 0 39zm62 -21c0,14 -4,25 -13,32 -8,8 -21,11 -37,11l-12 0 0 46 -27 0 0 -129 41 0c16,0 28,3 36,10 8,7 12,17 12,30zm99 89l-74 0 0 -129 74 0 0 22 -47 0 0 29 44 0 0 22 -44 0 0 34 47 0 0 22zm55 -72l9 0c8,0 15,-1 19,-4 4,-3 6,-7 6,-14 0,-6 -2,-10 -6,-13 -4,-2 -11,-4 -20,-4l-8 0 0 35zm0 23l0 49 -28 0 0 -129 38 0c18,0 31,3 39,10 9,6 13,16 13,29 0,7 -2,14 -6,20 -5,6 -10,11 -18,14 19,29 32,48 38,56l-31 0 -30 -49 -15 0zm172 49l-10 -30 -47 0 -9 30 -30 0 46 -130 33 0 46 130 -29 0zm-16 -53c-9,-28 -14,-44 -15,-48 -1,-3 -2,-6 -2,-8 -2,7 -8,26 -17,56l34 0zm99 53l-28 0 0 -106 -35 0 0 -23 98 0 0 23 -35 0 0 106zm55 0l0 -129 27 0 0 129 -27 0zm177 -64c0,21 -5,37 -16,49 -10,12 -25,17 -45,17 -20,0 -35,-5 -46,-17 -11,-12 -16,-28 -16,-50 0,-21 5,-38 16,-49 11,-11 26,-17 46,-17 20,0 35,6 46,17 10,12 15,28 15,50zm-94 0c0,14 3,25 8,32 6,8 14,11 25,11 22,0 33,-14 33,-43 0,-30 -11,-44 -33,-44 -11,0 -19,3 -25,11 -5,7 -8,18 -8,33zm236 64l-35 0 -56 -98 -1 0c1,18 2,30 2,38l0 60 -25 0 0 -129 35 0 56 97 1 0c-1,-17 -2,-29 -2,-36l0 -61 25 0 0 129zm109 -35c0,11 -4,20 -13,27 -8,7 -20,10 -35,10 -13,0 -26,-2 -36,-8l0 -25c8,4 16,7 22,8 6,2 11,3 16,3 7,0 11,-2 14,-4 4,-2 5,-6 5,-10 0,-3 0,-5 -2,-7 -1,-2 -3,-4 -6,-6 -3,-1 -9,-4 -17,-8 -8,-4 -14,-8 -18,-11 -4,-4 -7,-8 -9,-12 -3,-5 -4,-10 -4,-16 0,-11 4,-20 12,-27 8,-7 18,-10 32,-10 7,0 13,1 19,3 6,1 13,3 19,6l-8 22c-7,-3 -13,-5 -17,-6 -5,-1 -9,-2 -14,-2 -5,0 -9,1 -12,4 -3,2 -4,5 -4,9 0,3 1,5 2,6 1,2 3,4 5,6 3,1 8,4 17,9 13,6 21,11 25,17 5,6 7,13 7,22z"/>
  </g>
 </g>
</svg>
