<?xml version="1.0" encoding="UTF-8"?>
<!DOCTYPE svg PUBLIC "-//W3C//DTD SVG 1.1//EN" "http://www.w3.org/Graphics/SVG/1.1/DTD/svg11.dtd">
<!-- Creator: CorelDRAW X7 -->
<svg xmlns="http://www.w3.org/2000/svg" xml:space="preserve" width="2.53333in" height="0.333335in" version="1.1" style="shape-rendering:geometricPrecision; text-rendering:geometricPrecision; image-rendering:optimizeQuality; fill-rule:evenodd; clip-rule:evenodd"
viewBox="0 0 3171 417"
 xmlns:xlink="http://www.w3.org/1999/xlink">
 <defs>
  <style type="text/css">
   <![CDATA[
    .fil2 {fill:none}
    .fil0 {fill:#F58634}
    .fil1 {fill:white}
    .fil3 {fill:#FEFEFE;fill-rule:nonzero}
   ]]>
  </style>
    <clipPath id="id0">
     <path d="M0 0l3171 0 0 417 -3171 0 0 -417z"/>
    </clipPath>
 </defs>
 <g id="Layer_x0020_1_0">
  <metadata id="CorelCorpID_0Corel-Layer"/>
  <g id="_2323386192">
   <polygon class="fil0" points="0,0 3171,0 3171,417 0,417 "/>
   <g style="clip-path:url(#id0)">
    <g>
     <path id="1" class="fil1" d="M269 -207c230,0 415,186 415,416 0,229 -185,415 -415,415 -229,0 -415,-186 -415,-415 0,-230 186,-416 415,-416zm-84 346c-12,7 -19,24 -7,37 12,13 33,7 50,9 18,1 120,74 142,88 22,15 98,9 105,7 13,-5 20,-24 8,-39 -17,-20 -68,5 -98,-16l-104 -70c-12,-8 -21,-17 -38,-19 -16,-2 -45,-4 -58,3zm22 143l29 0c26,0 35,-8 31,-36 -29,-26 -35,-5 -65,-15 -30,-9 -124,-95 -158,-95l-32 0c-47,0 -42,44 -11,48 58,8 30,-8 78,24 28,19 98,74 128,74zm304 -97c3,19 -2,40 18,47 38,11 32,-40 32,-63 0,-27 -8,-33 -34,-33l-128 0c-45,0 -47,47 0,49 37,1 75,-2 112,0zm-517 50c-21,9 -22,37 -1,45 11,4 59,4 69,-1 16,-8 17,-35 0,-43 -11,-5 -57,-5 -68,-1z"/>
    </g>
   </g>
   <polygon class="fil2" points="0,0 3171,0 3171,417 0,417 "/>
   <path class="fil3" d="M1030 165c-10,0 -18,4 -24,11 -5,8 -8,19 -8,33 0,29 11,43 32,43 9,0 20,-2 33,-7l0 23c-10,5 -22,7 -35,7 -19,0 -34,-6 -44,-17 -10,-12 -15,-28 -15,-49 0,-14 3,-26 8,-36 5,-10 12,-18 21,-23 9,-5 20,-8 32,-8 13,0 25,3 38,9l-9 22c-5,-2 -9,-4 -14,-6 -5,-1 -10,-2 -15,-2zm175 43c0,22 -6,38 -16,50 -11,11 -26,17 -46,17 -20,0 -35,-6 -46,-17 -10,-12 -16,-28 -16,-50 0,-21 6,-38 16,-49 11,-12 26,-17 46,-17 20,0 35,5 46,17 10,11 16,28 16,49zm-95 0c0,15 3,26 8,33 6,7 14,11 25,11 22,0 33,-15 33,-44 0,-29 -11,-43 -33,-43 -11,0 -19,3 -24,11 -6,7 -9,18 -9,32zm122 65l0 -129 27 0 0 129 -27 0zm174 0l-34 0 -57 -98 -1 0c2,18 2,30 2,37l0 61 -24 0 0 -129 34 0 56 97 1 0c-1,-17 -1,-29 -1,-36l0 -61 24 0 0 129zm198 -65c0,22 -6,38 -16,50 -11,11 -26,17 -46,17 -20,0 -35,-6 -46,-17 -10,-12 -16,-28 -16,-50 0,-21 6,-38 16,-49 11,-12 26,-17 46,-17 20,0 35,5 46,17 10,11 16,28 16,49zm-95 0c0,15 3,26 8,33 6,7 14,11 25,11 22,0 33,-15 33,-44 0,-29 -11,-43 -33,-43 -11,0 -19,3 -25,11 -5,7 -8,18 -8,32zm149 -3l9 0c8,0 15,-2 19,-5 4,-4 6,-9 6,-15 0,-6 -2,-11 -5,-14 -4,-3 -9,-5 -17,-5l-12 0 0 39zm62 -21c0,14 -4,25 -13,32 -9,7 -21,11 -37,11l-12 0 0 46 -27 0 0 -129 41 0c16,0 28,3 36,10 8,7 12,17 12,30zm99 89l-75 0 0 -129 75 0 0 22 -47 0 0 29 44 0 0 22 -44 0 0 33 47 0 0 23zm54 -72l9 0c9,0 15,-1 19,-4 5,-3 7,-8 7,-14 0,-6 -2,-10 -7,-13 -4,-3 -10,-4 -19,-4l-9 0 0 35zm0 22l0 50 -27 0 0 -129 38 0c17,0 30,3 39,9 8,7 12,16 12,29 0,8 -2,15 -6,21 -4,6 -10,10 -18,14 20,29 33,48 38,56l-30 0 -31 -50 -15 0zm172 50l-9 -31 -48 0 -9 31 -30 0 46 -130 34 0 46 130 -30 0zm-16 -54c-9,-28 -14,-43 -15,-47 -1,-4 -1,-7 -2,-9 -2,8 -7,26 -17,56l34 0zm99 54l-27 0 0 -106 -35 0 0 -23 97 0 0 23 -35 0 0 106zm55 0l0 -129 28 0 0 129 -28 0zm178 -65c0,22 -5,38 -16,50 -11,11 -26,17 -46,17 -20,0 -35,-6 -45,-17 -11,-12 -16,-28 -16,-50 0,-21 5,-38 16,-49 10,-12 26,-17 45,-17 20,0 36,5 46,17 11,11 16,28 16,49zm-95 0c0,15 3,26 9,33 5,7 13,11 24,11 22,0 33,-15 33,-44 0,-29 -11,-43 -33,-43 -11,0 -19,3 -24,11 -6,7 -9,18 -9,32zm237 65l-35 0 -57 -98 0 0c1,18 1,30 1,37l0 61 -24 0 0 -129 34 0 57 97 0 0c-1,-17 -1,-29 -1,-36l0 -61 25 0 0 129zm109 -36c0,12 -5,21 -13,28 -8,7 -20,10 -35,10 -14,0 -26,-3 -37,-8l0 -25c9,4 16,6 22,8 6,2 12,2 17,2 6,0 11,-1 14,-3 3,-2 5,-6 5,-10 0,-3 -1,-5 -2,-7 -2,-2 -4,-4 -7,-6 -2,-2 -8,-5 -16,-9 -8,-3 -14,-7 -18,-10 -4,-4 -7,-8 -10,-12 -2,-5 -3,-10 -3,-16 0,-12 4,-21 11,-27 8,-7 19,-10 33,-10 6,0 13,1 19,2 6,2 12,4 19,7l-9 21c-7,-3 -12,-4 -17,-6 -5,-1 -9,-1 -13,-1 -6,0 -10,1 -12,3 -3,3 -4,6 -4,10 0,2 0,4 1,6 1,2 3,4 6,5 2,2 8,5 17,9 12,6 20,12 25,18 4,6 7,13 7,21z"/>
  </g>
 </g>
</svg>
