<?xml version="1.0" encoding="UTF-8" standalone="no"?>
<svg
   xmlns:dc="http://purl.org/dc/elements/1.1/"
   xmlns:cc="http://creativecommons.org/ns#"
   xmlns:rdf="http://www.w3.org/1999/02/22-rdf-syntax-ns#"
   xmlns:svg="http://www.w3.org/2000/svg"
   xmlns="http://www.w3.org/2000/svg"
   viewBox="0 0 1600 800"
   height="800"
   width="1600"
   xml:space="preserve"
   version="1.1"
   id="svg2"><metadata
     id="metadata8"><rdf:RDF><cc:Work
         rdf:about=""><dc:format>image/svg+xml</dc:format><dc:type
           rdf:resource="http://purl.org/dc/dcmitype/StillImage" /></cc:Work></rdf:RDF></metadata><defs
     id="defs6"><clipPath
       id="clipPath16"
       clipPathUnits="userSpaceOnUse"><path
         id="path18"
         d="M 0,600 1200,600 1200,0 0,0 0,600 Z" /></clipPath><clipPath
       id="clipPath48"
       clipPathUnits="userSpaceOnUse"><path
         id="path50"
         d="m 442.717,333.194 c -9.892,-14.079 -10.304,-116.999 0,-129.214 l 0,0 c 10.303,-12.214 131.941,-64.609 160.8,-64.609 l 0,0 c 28.859,0 149.386,52.595 155.533,64.609 l 0,0 c 6.145,12.012 8.781,117.201 0,129.214 l 0,0 c -8.781,12.013 -130.831,64.608 -158.167,64.608 l 0,0 c -27.336,0 -148.275,-50.528 -158.166,-64.608" /></clipPath><linearGradient
       id="linearGradient56"
       spreadMethod="pad"
       gradientTransform="matrix(329.54687,0,0,-329.54687,435.14258,268.58594)"
       gradientUnits="userSpaceOnUse"
       y2="0"
       x2="1"
       y1="0"
       x1="0"><stop
         id="stop58"
         offset="0"
         style="stop-opacity:1;stop-color:#b2b2b2" /><stop
         id="stop60"
         offset="0.23545202"
         style="stop-opacity:1;stop-color:#d8d8d8" /><stop
         id="stop62"
         offset="0.248489"
         style="stop-opacity:1;stop-color:#d8d8d8" /><stop
         id="stop64"
         offset="0.36630004"
         style="stop-opacity:1;stop-color:#cacaca" /><stop
         id="stop66"
         offset="0.399994"
         style="stop-opacity:1;stop-color:#cacaca" /><stop
         id="stop68"
         offset="0.484848"
         style="stop-opacity:1;stop-color:#efeeee" /><stop
         id="stop70"
         offset="0.52760838"
         style="stop-opacity:1;stop-color:#efeeee" /><stop
         id="stop72"
         offset="0.587875"
         style="stop-opacity:1;stop-color:#d6d6d6" /><stop
         id="stop74"
         offset="0.775757"
         style="stop-opacity:1;stop-color:#e9e9e9" /><stop
         id="stop76"
         offset="0.854538"
         style="stop-opacity:1;stop-color:#dedede" /><stop
         id="stop78"
         offset="0.93494068"
         style="stop-opacity:1;stop-color:#aaaaa9" /><stop
         id="stop80"
         offset="0.963638"
         style="stop-opacity:1;stop-color:#aaaaa9" /><stop
         id="stop82"
         offset="1"
         style="stop-opacity:1;stop-color:#aaaaa9" /></linearGradient><clipPath
       id="clipPath90"
       clipPathUnits="userSpaceOnUse"><path
         id="path92"
         d="m 442.717,358.195 c -9.892,-14.08 -10.304,-117 0,-129.214 l 0,0 c 10.303,-12.215 131.941,-64.61 160.8,-64.61 l 0,0 c 28.859,0 149.386,52.596 155.533,64.61 l 0,0 c 6.145,12.011 8.781,117.201 0,129.214 l 0,0 c -8.781,12.012 -130.831,64.607 -158.167,64.607 l 0,0 c -27.336,0 -148.275,-50.528 -158.166,-64.607" /></clipPath><linearGradient
       id="linearGradient98"
       spreadMethod="pad"
       gradientTransform="matrix(329.54687,0,0,-329.54687,435.14258,293.58594)"
       gradientUnits="userSpaceOnUse"
       y2="0"
       x2="1"
       y1="0"
       x1="0"><stop
         id="stop100"
         offset="0"
         style="stop-opacity:1;stop-color:#bdbcbc" /><stop
         id="stop102"
         offset="0.23545202"
         style="stop-opacity:1;stop-color:#dcdcdc" /><stop
         id="stop104"
         offset="0.248489"
         style="stop-opacity:1;stop-color:#dcdcdc" /><stop
         id="stop106"
         offset="0.36630004"
         style="stop-opacity:1;stop-color:#e2e1e1" /><stop
         id="stop108"
         offset="0.399994"
         style="stop-opacity:1;stop-color:#e2e1e1" /><stop
         id="stop110"
         offset="0.484848"
         style="stop-opacity:1;stop-color:#f4f4f4" /><stop
         id="stop112"
         offset="0.52760838"
         style="stop-opacity:1;stop-color:#f4f4f4" /><stop
         id="stop114"
         offset="0.587875"
         style="stop-opacity:1;stop-color:#dedede" /><stop
         id="stop116"
         offset="0.775757"
         style="stop-opacity:1;stop-color:#f2f2f2" /><stop
         id="stop118"
         offset="0.854538"
         style="stop-opacity:1;stop-color:#e9e9e9" /><stop
         id="stop120"
         offset="0.93494068"
         style="stop-opacity:1;stop-color:#dcdcdc" /><stop
         id="stop122"
         offset="0.963638"
         style="stop-opacity:1;stop-color:#dcdcdc" /><stop
         id="stop124"
         offset="1"
         style="stop-opacity:1;stop-color:#dcdcdc" /></linearGradient><linearGradient
       id="linearGradient140"
       spreadMethod="pad"
       gradientTransform="matrix(44.459351,-252.14157,-252.14157,-44.459335,578.34375,422.35889)"
       gradientUnits="userSpaceOnUse"
       y2="0"
       x2="1"
       y1="0"
       x1="0"><stop
         id="stop142"
         offset="0"
         style="stop-opacity:1;stop-color:#999999" /><stop
         id="stop144"
         offset="0.91308072"
         style="stop-opacity:1;stop-color:#e2e3e6" /><stop
         id="stop146"
         offset="0.963638"
         style="stop-opacity:1;stop-color:#e2e3e6" /><stop
         id="stop148"
         offset="0.9926944"
         style="stop-opacity:1;stop-color:#e2e3e6" /><stop
         id="stop150"
         offset="1"
         style="stop-opacity:1;stop-color:#e2e3e6" /></linearGradient><radialGradient
       id="radialGradient166"
       spreadMethod="pad"
       gradientTransform="matrix(213.66405,74.658737,74.658737,-213.66405,605.79492,190.30566)"
       gradientUnits="userSpaceOnUse"
       r="1"
       cy="0"
       cx="0"
       fy="0"
       fx="0"><stop
         id="stop168"
         offset="0"
         style="stop-opacity:1;stop-color:#57bbed" /><stop
         id="stop170"
         offset="1"
         style="stop-opacity:1;stop-color:#2176c6" /></radialGradient><linearGradient
       id="linearGradient186"
       spreadMethod="pad"
       gradientTransform="matrix(329.54687,0,0,-329.54687,435.14258,330.58643)"
       gradientUnits="userSpaceOnUse"
       y2="0"
       x2="1"
       y1="0"
       x1="0"><stop
         id="stop188"
         offset="0"
         style="stop-opacity:1;stop-color:#b2b2b2" /><stop
         id="stop190"
         offset="0.23545202"
         style="stop-opacity:1;stop-color:#d8d8d8" /><stop
         id="stop192"
         offset="0.248489"
         style="stop-opacity:1;stop-color:#d8d8d8" /><stop
         id="stop194"
         offset="0.36630004"
         style="stop-opacity:1;stop-color:#cacaca" /><stop
         id="stop196"
         offset="0.399994"
         style="stop-opacity:1;stop-color:#cacaca" /><stop
         id="stop198"
         offset="0.484848"
         style="stop-opacity:1;stop-color:#efeeee" /><stop
         id="stop200"
         offset="0.52760838"
         style="stop-opacity:1;stop-color:#efeeee" /><stop
         id="stop202"
         offset="0.587875"
         style="stop-opacity:1;stop-color:#d6d6d6" /><stop
         id="stop204"
         offset="0.775757"
         style="stop-opacity:1;stop-color:#e9e9e9" /><stop
         id="stop206"
         offset="0.854538"
         style="stop-opacity:1;stop-color:#dedede" /><stop
         id="stop208"
         offset="0.93494068"
         style="stop-opacity:1;stop-color:#aaaaa9" /><stop
         id="stop210"
         offset="0.963638"
         style="stop-opacity:1;stop-color:#aaaaa9" /><stop
         id="stop212"
         offset="1"
         style="stop-opacity:1;stop-color:#aaaaa9" /></linearGradient><linearGradient
       id="linearGradient228"
       spreadMethod="pad"
       gradientTransform="matrix(329.54687,0,0,-329.54687,435.14258,354.58643)"
       gradientUnits="userSpaceOnUse"
       y2="0"
       x2="1"
       y1="0"
       x1="0"><stop
         id="stop230"
         offset="0"
         style="stop-opacity:1;stop-color:#bdbcbc" /><stop
         id="stop232"
         offset="0.23545202"
         style="stop-opacity:1;stop-color:#dcdcdc" /><stop
         id="stop234"
         offset="0.248489"
         style="stop-opacity:1;stop-color:#dcdcdc" /><stop
         id="stop236"
         offset="0.36630004"
         style="stop-opacity:1;stop-color:#e2e1e1" /><stop
         id="stop238"
         offset="0.399994"
         style="stop-opacity:1;stop-color:#e2e1e1" /><stop
         id="stop240"
         offset="0.484848"
         style="stop-opacity:1;stop-color:#f4f4f4" /><stop
         id="stop242"
         offset="0.52760838"
         style="stop-opacity:1;stop-color:#f4f4f4" /><stop
         id="stop244"
         offset="0.587875"
         style="stop-opacity:1;stop-color:#dedede" /><stop
         id="stop246"
         offset="0.775757"
         style="stop-opacity:1;stop-color:#f2f2f2" /><stop
         id="stop248"
         offset="0.854538"
         style="stop-opacity:1;stop-color:#e9e9e9" /><stop
         id="stop250"
         offset="0.93494068"
         style="stop-opacity:1;stop-color:#dcdcdc" /><stop
         id="stop252"
         offset="0.963638"
         style="stop-opacity:1;stop-color:#dcdcdc" /><stop
         id="stop254"
         offset="1"
         style="stop-opacity:1;stop-color:#dcdcdc" /></linearGradient><linearGradient
       id="linearGradient270"
       spreadMethod="pad"
       gradientTransform="matrix(44.459351,-252.14157,-252.14157,-44.459335,578.34424,483.35889)"
       gradientUnits="userSpaceOnUse"
       y2="0"
       x2="1"
       y1="0"
       x1="0"><stop
         id="stop272"
         offset="0"
         style="stop-opacity:1;stop-color:#999999" /><stop
         id="stop274"
         offset="0.91308072"
         style="stop-opacity:1;stop-color:#e2e3e6" /><stop
         id="stop276"
         offset="0.963638"
         style="stop-opacity:1;stop-color:#e2e3e6" /><stop
         id="stop278"
         offset="1"
         style="stop-opacity:1;stop-color:#e2e3e6" /></linearGradient><clipPath
       id="clipPath286"
       clipPathUnits="userSpaceOnUse"><path
         id="path288"
         d="M 0,600 1200,600 1200,0 0,0 0,600 Z" /></clipPath><linearGradient
       id="linearGradient306"
       spreadMethod="pad"
       gradientTransform="matrix(29.915298,-169.65814,-169.65814,-29.915298,591.5542,337.57666)"
       gradientUnits="userSpaceOnUse"
       y2="0"
       x2="1"
       y1="0"
       x1="0"><stop
         id="stop308"
         offset="0"
         style="stop-opacity:1;stop-color:#999999" /><stop
         id="stop310"
         offset="0.91308072"
         style="stop-opacity:1;stop-color:#e2e3e6" /><stop
         id="stop312"
         offset="0.963638"
         style="stop-opacity:1;stop-color:#e2e3e6" /><stop
         id="stop314"
         offset="1"
         style="stop-opacity:1;stop-color:#e2e3e6" /></linearGradient><linearGradient
       id="linearGradient330"
       spreadMethod="pad"
       gradientTransform="matrix(44.09169,-250.05655,-250.05655,-44.09169,578.8833,482.64453)"
       gradientUnits="userSpaceOnUse"
       y2="0"
       x2="1"
       y1="0"
       x1="0"><stop
         id="stop332"
         offset="0"
         style="stop-opacity:1;stop-color:#999999" /><stop
         id="stop334"
         offset="0.91308072"
         style="stop-opacity:1;stop-color:#e2e3e6" /><stop
         id="stop336"
         offset="0.963638"
         style="stop-opacity:1;stop-color:#e2e3e6" /><stop
         id="stop338"
         offset="1"
         style="stop-opacity:1;stop-color:#e2e3e6" /></linearGradient><linearGradient
       id="linearGradient354"
       spreadMethod="pad"
       gradientTransform="matrix(36.235474,-205.50169,-205.50169,-36.235474,582.03857,465.62842)"
       gradientUnits="userSpaceOnUse"
       y2="0"
       x2="1"
       y1="0"
       x1="0"><stop
         id="stop356"
         offset="0"
         style="stop-opacity:1;stop-color:#57bbed" /><stop
         id="stop358"
         offset="1"
         style="stop-opacity:1;stop-color:#2176c6" /></linearGradient><linearGradient
       id="linearGradient374"
       spreadMethod="pad"
       gradientTransform="matrix(20.916458,-118.62317,-118.62317,-20.916458,596.17969,376.6582)"
       gradientUnits="userSpaceOnUse"
       y2="0"
       x2="1"
       y1="0"
       x1="0"><stop
         id="stop376"
         offset="0"
         style="stop-opacity:1;stop-color:#2176c6" /><stop
         id="stop378"
         offset="1"
         style="stop-opacity:1;stop-color:#57bbed" /></linearGradient><clipPath
       id="clipPath386"
       clipPathUnits="userSpaceOnUse"><path
         id="path388"
         d="M 0,600 1200,600 1200,0 0,0 0,600 Z" /></clipPath><clipPath
       id="clipPath394"
       clipPathUnits="userSpaceOnUse"><path
         id="path396"
         d="m 465.206,388.257 268.684,0 0,-132.341 -268.684,0 0,132.341 z" /></clipPath><linearGradient
       id="linearGradient402"
       spreadMethod="pad"
       gradientTransform="matrix(20.916458,-118.62317,-118.62317,-20.916458,596.17969,376.6582)"
       gradientUnits="userSpaceOnUse"
       y2="0"
       x2="1"
       y1="0"
       x1="0"><stop
         id="stop404"
         offset="0"
         style="stop-opacity:1;stop-color:#2176c6" /><stop
         id="stop406"
         offset="1"
         style="stop-opacity:1;stop-color:#57bbed" /></linearGradient><linearGradient
       id="linearGradient434"
       spreadMethod="pad"
       gradientTransform="matrix(329.54687,0,0,-329.54687,789.30957,269.08691)"
       gradientUnits="userSpaceOnUse"
       y2="0"
       x2="1"
       y1="0"
       x1="0"><stop
         id="stop436"
         offset="0"
         style="stop-opacity:1;stop-color:#b2b2b2" /><stop
         id="stop438"
         offset="0.23545202"
         style="stop-opacity:1;stop-color:#d8d8d8" /><stop
         id="stop440"
         offset="0.248489"
         style="stop-opacity:1;stop-color:#d8d8d8" /><stop
         id="stop442"
         offset="0.36630004"
         style="stop-opacity:1;stop-color:#cacaca" /><stop
         id="stop444"
         offset="0.399994"
         style="stop-opacity:1;stop-color:#cacaca" /><stop
         id="stop446"
         offset="0.484848"
         style="stop-opacity:1;stop-color:#efeeee" /><stop
         id="stop448"
         offset="0.52760838"
         style="stop-opacity:1;stop-color:#efeeee" /><stop
         id="stop450"
         offset="0.587875"
         style="stop-opacity:1;stop-color:#d6d6d6" /><stop
         id="stop452"
         offset="0.775757"
         style="stop-opacity:1;stop-color:#e9e9e9" /><stop
         id="stop454"
         offset="0.854538"
         style="stop-opacity:1;stop-color:#dedede" /><stop
         id="stop456"
         offset="0.93494068"
         style="stop-opacity:1;stop-color:#aaaaa9" /><stop
         id="stop458"
         offset="0.963638"
         style="stop-opacity:1;stop-color:#aaaaa9" /><stop
         id="stop460"
         offset="1"
         style="stop-opacity:1;stop-color:#aaaaa9" /></linearGradient><linearGradient
       id="linearGradient476"
       spreadMethod="pad"
       gradientTransform="matrix(329.54687,0,0,-329.54687,789.30957,294.08691)"
       gradientUnits="userSpaceOnUse"
       y2="0"
       x2="1"
       y1="0"
       x1="0"><stop
         id="stop478"
         offset="0"
         style="stop-opacity:1;stop-color:#bdbcbc" /><stop
         id="stop480"
         offset="0.23545202"
         style="stop-opacity:1;stop-color:#dcdcdc" /><stop
         id="stop482"
         offset="0.248489"
         style="stop-opacity:1;stop-color:#dcdcdc" /><stop
         id="stop484"
         offset="0.36630004"
         style="stop-opacity:1;stop-color:#e2e1e1" /><stop
         id="stop486"
         offset="0.399994"
         style="stop-opacity:1;stop-color:#e2e1e1" /><stop
         id="stop488"
         offset="0.484848"
         style="stop-opacity:1;stop-color:#f4f4f4" /><stop
         id="stop490"
         offset="0.52760838"
         style="stop-opacity:1;stop-color:#f4f4f4" /><stop
         id="stop492"
         offset="0.587875"
         style="stop-opacity:1;stop-color:#dedede" /><stop
         id="stop494"
         offset="0.775757"
         style="stop-opacity:1;stop-color:#f2f2f2" /><stop
         id="stop496"
         offset="0.854538"
         style="stop-opacity:1;stop-color:#e9e9e9" /><stop
         id="stop498"
         offset="0.93494068"
         style="stop-opacity:1;stop-color:#dcdcdc" /><stop
         id="stop500"
         offset="0.963638"
         style="stop-opacity:1;stop-color:#dcdcdc" /><stop
         id="stop502"
         offset="1"
         style="stop-opacity:1;stop-color:#dcdcdc" /></linearGradient><linearGradient
       id="linearGradient518"
       spreadMethod="pad"
       gradientTransform="matrix(44.459518,-252.14253,-252.14253,-44.459503,932.51074,422.85889)"
       gradientUnits="userSpaceOnUse"
       y2="0"
       x2="1"
       y1="0"
       x1="0"><stop
         id="stop520"
         offset="0"
         style="stop-opacity:1;stop-color:#999999" /><stop
         id="stop522"
         offset="0.91308072"
         style="stop-opacity:1;stop-color:#e2e3e6" /><stop
         id="stop524"
         offset="0.963638"
         style="stop-opacity:1;stop-color:#e2e3e6" /><stop
         id="stop526"
         offset="0.9926944"
         style="stop-opacity:1;stop-color:#e2e3e6" /><stop
         id="stop528"
         offset="1"
         style="stop-opacity:1;stop-color:#e2e3e6" /></linearGradient><radialGradient
       id="radialGradient544"
       spreadMethod="pad"
       gradientTransform="matrix(213.66266,74.658264,74.658264,-213.66266,959.96289,190.80566)"
       gradientUnits="userSpaceOnUse"
       r="1"
       cy="0"
       cx="0"
       fy="0"
       fx="0"><stop
         id="stop546"
         offset="0"
         style="stop-opacity:1;stop-color:#57bbed" /><stop
         id="stop548"
         offset="1"
         style="stop-opacity:1;stop-color:#2176c6" /></radialGradient><linearGradient
       id="linearGradient564"
       spreadMethod="pad"
       gradientTransform="matrix(329.54687,0,0,-329.54687,789.30957,331.08691)"
       gradientUnits="userSpaceOnUse"
       y2="0"
       x2="1"
       y1="0"
       x1="0"><stop
         id="stop566"
         offset="0"
         style="stop-opacity:1;stop-color:#b2b2b2" /><stop
         id="stop568"
         offset="0.23545202"
         style="stop-opacity:1;stop-color:#d8d8d8" /><stop
         id="stop570"
         offset="0.248489"
         style="stop-opacity:1;stop-color:#d8d8d8" /><stop
         id="stop572"
         offset="0.36630004"
         style="stop-opacity:1;stop-color:#cacaca" /><stop
         id="stop574"
         offset="0.399994"
         style="stop-opacity:1;stop-color:#cacaca" /><stop
         id="stop576"
         offset="0.484848"
         style="stop-opacity:1;stop-color:#efeeee" /><stop
         id="stop578"
         offset="0.52760838"
         style="stop-opacity:1;stop-color:#efeeee" /><stop
         id="stop580"
         offset="0.587875"
         style="stop-opacity:1;stop-color:#d6d6d6" /><stop
         id="stop582"
         offset="0.775757"
         style="stop-opacity:1;stop-color:#e9e9e9" /><stop
         id="stop584"
         offset="0.854538"
         style="stop-opacity:1;stop-color:#dedede" /><stop
         id="stop586"
         offset="0.93494068"
         style="stop-opacity:1;stop-color:#aaaaa9" /><stop
         id="stop588"
         offset="0.963638"
         style="stop-opacity:1;stop-color:#aaaaa9" /><stop
         id="stop590"
         offset="1"
         style="stop-opacity:1;stop-color:#aaaaa9" /></linearGradient><linearGradient
       id="linearGradient606"
       spreadMethod="pad"
       gradientTransform="matrix(329.54687,0,0,-329.54687,789.30957,355.08691)"
       gradientUnits="userSpaceOnUse"
       y2="0"
       x2="1"
       y1="0"
       x1="0"><stop
         id="stop608"
         offset="0"
         style="stop-opacity:1;stop-color:#bdbcbc" /><stop
         id="stop610"
         offset="0.23545202"
         style="stop-opacity:1;stop-color:#dcdcdc" /><stop
         id="stop612"
         offset="0.248489"
         style="stop-opacity:1;stop-color:#dcdcdc" /><stop
         id="stop614"
         offset="0.36630004"
         style="stop-opacity:1;stop-color:#e2e1e1" /><stop
         id="stop616"
         offset="0.399994"
         style="stop-opacity:1;stop-color:#e2e1e1" /><stop
         id="stop618"
         offset="0.484848"
         style="stop-opacity:1;stop-color:#f4f4f4" /><stop
         id="stop620"
         offset="0.52760838"
         style="stop-opacity:1;stop-color:#f4f4f4" /><stop
         id="stop622"
         offset="0.587875"
         style="stop-opacity:1;stop-color:#dedede" /><stop
         id="stop624"
         offset="0.775757"
         style="stop-opacity:1;stop-color:#f2f2f2" /><stop
         id="stop626"
         offset="0.854538"
         style="stop-opacity:1;stop-color:#e9e9e9" /><stop
         id="stop628"
         offset="0.93494068"
         style="stop-opacity:1;stop-color:#dcdcdc" /><stop
         id="stop630"
         offset="0.963638"
         style="stop-opacity:1;stop-color:#dcdcdc" /><stop
         id="stop632"
         offset="1"
         style="stop-opacity:1;stop-color:#dcdcdc" /></linearGradient><linearGradient
       id="linearGradient648"
       spreadMethod="pad"
       gradientTransform="matrix(44.459351,-252.14157,-252.14157,-44.459335,932.51074,483.85889)"
       gradientUnits="userSpaceOnUse"
       y2="0"
       x2="1"
       y1="0"
       x1="0"><stop
         id="stop650"
         offset="0"
         style="stop-opacity:1;stop-color:#999999" /><stop
         id="stop652"
         offset="0.91308072"
         style="stop-opacity:1;stop-color:#e2e3e6" /><stop
         id="stop654"
         offset="0.963638"
         style="stop-opacity:1;stop-color:#e2e3e6" /><stop
         id="stop656"
         offset="1"
         style="stop-opacity:1;stop-color:#e2e3e6" /></linearGradient><clipPath
       id="clipPath664"
       clipPathUnits="userSpaceOnUse"><path
         id="path666"
         d="M 0,600 1200,600 1200,0 0,0 0,600 Z" /></clipPath><linearGradient
       id="linearGradient684"
       spreadMethod="pad"
       gradientTransform="matrix(29.915466,-169.6591,-169.6591,-29.915466,945.72168,338.07715)"
       gradientUnits="userSpaceOnUse"
       y2="0"
       x2="1"
       y1="0"
       x1="0"><stop
         id="stop686"
         offset="0"
         style="stop-opacity:1;stop-color:#999999" /><stop
         id="stop688"
         offset="0.91308072"
         style="stop-opacity:1;stop-color:#e2e3e6" /><stop
         id="stop690"
         offset="0.963638"
         style="stop-opacity:1;stop-color:#e2e3e6" /><stop
         id="stop692"
         offset="1"
         style="stop-opacity:1;stop-color:#e2e3e6" /></linearGradient><linearGradient
       id="linearGradient708"
       spreadMethod="pad"
       gradientTransform="matrix(44.09169,-250.05655,-250.05655,-44.09169,933.05078,483.14502)"
       gradientUnits="userSpaceOnUse"
       y2="0"
       x2="1"
       y1="0"
       x1="0"><stop
         id="stop710"
         offset="0"
         style="stop-opacity:1;stop-color:#999999" /><stop
         id="stop712"
         offset="0.91308072"
         style="stop-opacity:1;stop-color:#e2e3e6" /><stop
         id="stop714"
         offset="0.963638"
         style="stop-opacity:1;stop-color:#e2e3e6" /><stop
         id="stop716"
         offset="1"
         style="stop-opacity:1;stop-color:#e2e3e6" /></linearGradient><linearGradient
       id="linearGradient732"
       spreadMethod="pad"
       gradientTransform="matrix(36.235809,-205.50362,-205.50362,-36.235809,936.20605,466.12988)"
       gradientUnits="userSpaceOnUse"
       y2="0"
       x2="1"
       y1="0"
       x1="0"><stop
         id="stop734"
         offset="0"
         style="stop-opacity:1;stop-color:#57bbed" /><stop
         id="stop736"
         offset="1"
         style="stop-opacity:1;stop-color:#2176c6" /></linearGradient><linearGradient
       id="linearGradient752"
       spreadMethod="pad"
       gradientTransform="matrix(20.916626,-118.62413,-118.62413,-20.916626,950.34668,377.15918)"
       gradientUnits="userSpaceOnUse"
       y2="0"
       x2="1"
       y1="0"
       x1="0"><stop
         id="stop754"
         offset="0"
         style="stop-opacity:1;stop-color:#2176c6" /><stop
         id="stop756"
         offset="1"
         style="stop-opacity:1;stop-color:#57bbed" /></linearGradient><clipPath
       id="clipPath764"
       clipPathUnits="userSpaceOnUse"><path
         id="path766"
         d="M 0,600 1200,600 1200,0 0,0 0,600 Z" /></clipPath><clipPath
       id="clipPath772"
       clipPathUnits="userSpaceOnUse"><path
         id="path774"
         d="m 819.373,388.758 268.687,0 0,-132.342 -268.687,0 0,132.342 z" /></clipPath><linearGradient
       id="linearGradient780"
       spreadMethod="pad"
       gradientTransform="matrix(20.916626,-118.62413,-118.62413,-20.916626,950.34668,377.15918)"
       gradientUnits="userSpaceOnUse"
       y2="0"
       x2="1"
       y1="0"
       x1="0"><stop
         id="stop782"
         offset="0"
         style="stop-opacity:1;stop-color:#2176c6" /><stop
         id="stop784"
         offset="1"
         style="stop-opacity:1;stop-color:#57bbed" /></linearGradient><linearGradient
       id="linearGradient812"
       spreadMethod="pad"
       gradientTransform="matrix(19.383133,-109.92725,-109.92725,-19.383133,944.84473,420.85596)"
       gradientUnits="userSpaceOnUse"
       y2="0"
       x2="1"
       y1="0"
       x1="0"><stop
         id="stop814"
         offset="0"
         style="stop-opacity:1;stop-color:#999999" /><stop
         id="stop816"
         offset="0.91308072"
         style="stop-opacity:1;stop-color:#e2e3e6" /><stop
         id="stop818"
         offset="0.963638"
         style="stop-opacity:1;stop-color:#e2e3e6" /><stop
         id="stop820"
         offset="1"
         style="stop-opacity:1;stop-color:#e2e3e6" /></linearGradient></defs><g
     transform="matrix(1.3333333,0,0,-1.3333333,0,800)"
     id="g10"><g
       id="g12"><g
         clip-path="url(#clipPath16)"
         id="g14"><g
           transform="translate(247.5176,139.8721)"
           id="g20"><path
             id="path22"
             style="fill:#b2b2b2;fill-opacity:1;fill-rule:nonzero;stroke:none"
             d="m 0,0 c -28.859,0 -150.497,52.395 -160.801,64.608 -10.303,12.216 -9.891,115.135 0,129.215 9.892,14.079 130.83,64.607 158.166,64.607 27.336,0 149.386,-52.595 158.167,-64.607 8.781,-12.012 6.146,-117.202 0,-129.215 C 149.386,52.596 28.858,0 0,0" /></g><g
           transform="translate(247.5176,164.8721)"
           id="g24"><path
             id="path26"
             style="fill:#c6c6c5;fill-opacity:1;fill-rule:nonzero;stroke:none"
             d="m 0,0 c -28.859,0 -150.497,52.395 -160.801,64.608 -10.303,12.216 -9.891,115.135 0,129.215 9.892,14.079 130.83,64.607 158.166,64.607 27.336,0 149.386,-52.595 158.167,-64.607 8.781,-12.012 6.146,-117.202 0,-129.215 C 149.386,52.596 28.858,0 0,0" /></g><g
           transform="translate(246.4941,176.0625)"
           id="g28"><path
             id="path30"
             style="fill:#36a9e1;fill-opacity:1;fill-rule:nonzero;stroke:none"
             d="m 0,0 c -26.967,0 -140.629,48.961 -150.257,60.373 -9.628,11.414 -9.243,107.585 0,120.742 9.243,13.157 122.251,60.371 147.795,60.371 25.543,0 139.59,-49.147 147.796,-60.371 8.205,-11.225 5.743,-109.516 0,-120.742 C 139.591,49.148 26.966,0 0,0" /></g><g
           transform="translate(247.5176,199.8721)"
           id="g32"><path
             id="path34"
             style="fill:#b2b2b2;fill-opacity:1;fill-rule:nonzero;stroke:none"
             d="m 0,0 c -28.859,0 -150.497,52.395 -160.801,64.608 -10.303,12.216 -9.891,115.135 0,129.215 9.892,14.079 130.83,64.607 158.166,64.607 27.336,0 149.386,-52.595 158.167,-64.607 8.781,-12.012 6.146,-117.202 0,-129.215 C 149.386,52.596 28.858,0 0,0" /></g><g
           transform="translate(247.5176,226.8721)"
           id="g36"><path
             id="path38"
             style="fill:#c6c6c5;fill-opacity:1;fill-rule:nonzero;stroke:none"
             d="m 0,0 c -28.859,0 -150.497,52.395 -160.801,64.608 -10.303,12.216 -9.891,115.135 0,129.215 9.892,14.079 130.83,64.607 158.166,64.607 27.336,0 149.386,-52.595 158.167,-64.607 8.781,-12.012 6.146,-117.202 0,-129.215 C 149.386,52.596 28.858,0 0,0" /></g><g
           transform="translate(246.4907,257.6445)"
           id="g40"><path
             id="path42"
             style="fill:#36a9e1;fill-opacity:1;fill-rule:nonzero;stroke:none"
             d="m 0,0 c -22.991,0 -119.896,41.742 -128.104,51.473 -8.209,9.73 -7.881,91.723 0,102.94 7.879,11.217 104.227,51.471 126.005,51.471 21.778,0 119.01,-41.902 126.007,-51.471 6.995,-9.57 4.896,-93.37 0,-102.94 C 119.011,41.902 22.991,0 0,0" /></g></g></g><g
       id="g44"><g
         clip-path="url(#clipPath48)"
         id="g46"><g
           id="g52"><g
             id="g54"><path
               id="path84"
               style="fill:url(#linearGradient56);stroke:none"
               d="m 442.717,333.194 c -9.892,-14.079 -10.304,-116.999 0,-129.214 l 0,0 c 10.303,-12.214 131.941,-64.609 160.8,-64.609 l 0,0 c 28.859,0 149.386,52.595 155.533,64.609 l 0,0 c 6.145,12.012 8.781,117.201 0,129.214 l 0,0 c -8.781,12.013 -130.831,64.608 -158.167,64.608 l 0,0 c -27.336,0 -148.275,-50.528 -158.166,-64.608" /></g></g></g></g><g
       id="g86"><g
         clip-path="url(#clipPath90)"
         id="g88"><g
           id="g94"><g
             id="g96"><path
               id="path126"
               style="fill:url(#linearGradient98);stroke:none"
               d="m 442.717,358.195 c -9.892,-14.08 -10.304,-117 0,-129.214 l 0,0 c 10.303,-12.215 131.941,-64.61 160.8,-64.61 l 0,0 c 28.859,0 149.386,52.596 155.533,64.61 l 0,0 c 6.145,12.011 8.781,117.201 0,129.214 l 0,0 c -8.781,12.012 -130.831,64.607 -158.167,64.607 l 0,0 c -27.336,0 -148.275,-50.528 -158.166,-64.607" /></g></g></g></g><g
       id="g128"><g
         id="g130"><g
           id="g136"><g
             id="g138"><path
               id="path152"
               style="fill:url(#linearGradient140);stroke:none"
               d="m 442.717,361.194 c -9.892,-14.079 -10.304,-116.999 0,-129.214 l 0,0 c 10.303,-12.214 131.941,-64.609 160.8,-64.609 l 0,0 c 28.859,0 149.386,52.596 155.533,64.609 l 0,0 c 6.145,12.012 8.781,117.202 0,129.214 l 0,0 c -8.781,12.013 -130.831,64.608 -158.167,64.608 l 0,0 c -27.336,0 -148.275,-50.528 -158.166,-64.608" /></g></g></g></g><g
       id="g154"><g
         id="g156"><g
           id="g162"><g
             id="g164"><path
               id="path172"
               style="fill:url(#radialGradient166);stroke:none"
               d="m 452.237,358.677 c -9.243,-13.156 -9.628,-109.327 0,-120.741 l 0,0 c 9.627,-11.412 123.29,-60.373 150.257,-60.373 l 0,0 c 26.966,0 139.591,49.148 145.334,60.373 l 0,0 c 5.743,11.224 8.205,109.516 0,120.741 l 0,0 c -8.206,11.225 -122.252,60.371 -147.796,60.371 l 0,0 c -25.544,0 -138.553,-47.214 -147.795,-60.371" /></g></g></g></g><g
       id="g174"><g
         id="g176"><g
           id="g182"><g
             id="g184"><path
               id="path214"
               style="fill:url(#linearGradient186);stroke:none"
               d="m 442.717,395.194 c -9.892,-14.079 -10.304,-116.999 0,-129.213 l 0,0 c 10.303,-12.215 131.941,-64.61 160.8,-64.61 l 0,0 c 28.859,0 149.386,52.595 155.533,64.61 l 0,0 c 6.145,12.011 8.781,117.201 0,129.213 l 0,0 c -8.781,12.013 -130.831,64.608 -158.167,64.608 l 0,0 c -27.336,0 -148.275,-50.528 -158.166,-64.608" /></g></g></g></g><g
       id="g216"><g
         id="g218"><g
           id="g224"><g
             id="g226"><path
               id="path256"
               style="fill:url(#linearGradient228);stroke:none"
               d="m 442.717,419.194 c -9.892,-14.08 -10.304,-116.998 0,-129.213 l 0,0 c 10.303,-12.216 131.941,-64.61 160.8,-64.61 l 0,0 c 28.859,0 149.386,52.596 155.533,64.61 l 0,0 c 6.145,12.011 8.781,117.201 0,129.213 l 0,0 c -8.781,12.012 -130.831,64.607 -158.167,64.607 l 0,0 c -27.336,0 -148.275,-50.528 -158.166,-64.607" /></g></g></g></g><g
       id="g258"><g
         id="g260"><g
           id="g266"><g
             id="g268"><path
               id="path280"
               style="fill:url(#linearGradient270);stroke:none"
               d="m 442.717,422.194 c -9.892,-14.079 -10.304,-116.999 0,-129.213 l 0,0 c 10.303,-12.215 131.941,-64.61 160.8,-64.61 l 0,0 c 28.859,0 149.386,52.595 155.533,64.61 l 0,0 c 6.145,12.011 8.781,117.201 0,129.213 l 0,0 c -8.781,12.013 -130.831,64.608 -158.167,64.608 l 0,0 c -27.336,0 -148.275,-50.528 -158.166,-64.608" /></g></g></g></g><g
       id="g282"><g
         clip-path="url(#clipPath286)"
         id="g284"><g
           transform="translate(602.5566,251.8066)"
           id="g290"><path
             id="path292"
             style="fill:#36a9e1;fill-opacity:1;fill-rule:nonzero;stroke:none"
             d="m 0,0 c -23.522,0 -122.66,42.704 -131.058,52.658 -8.397,9.955 -8.061,93.838 0,105.314 8.062,11.475 106.63,52.656 128.911,52.656 22.279,0 121.752,-42.866 128.91,-52.656 7.156,-9.791 5.009,-95.523 0,-105.314 C 121.753,42.867 23.52,0 0,0" /></g></g></g><g
       id="g294"><g
         id="g296"><g
           id="g302"><g
             id="g304"><path
               id="path316"
               style="fill:url(#linearGradient306);stroke:none"
               d="m 758.719,265.447 c -0.86,-1.68 -3.857,-3.125 -7.355,-5.966 l 0,0 c -0.886,-9.753 -2.41,-19.292 -3.738,-21.887 l 0,0 C 741.883,226.369 629.078,177.563 602.113,177.563 l 0,0 c -26.969,0 -140.249,48.961 -149.876,60.373 l 0,0 c -2.573,3.051 -4.5,12.877 -5.665,24.833 l 0,0 c -1.397,1.016 -3.23,2.471 -3.855,3.212 l 0,0 c -4.086,4.843 -6.124,21.957 -6.917,44.132 l 0,0 c -1.181,-33.629 1.159,-72.878 7.278,-80.132 l 0,0 c 10.304,-12.215 131.942,-64.61 160.801,-64.61 l 0,0 c 28.858,0 149.386,52.595 155.532,64.61 l 0,0 c 3.933,7.685 6.002,53.172 4.99,88.335 l 0,0 c -0.656,-25.715 -2.956,-47.545 -5.682,-52.869" /></g></g></g></g><g
       id="g318"><g
         id="g320"><g
           id="g326"><g
             id="g328"><path
               id="path340"
               style="fill:url(#linearGradient330);stroke:none"
               d="m 444.378,421.986 c -9.81,-13.964 -10.219,-116.031 0,-128.146 l 0,0 c 10.217,-12.113 130.851,-64.074 159.472,-64.074 l 0,0 c 28.619,0 148.15,52.16 154.246,64.074 l 0,0 c 6.094,11.914 8.708,116.232 0,128.146 l 0,0 c -8.709,11.913 -129.75,64.073 -156.86,64.073 l 0,0 c -27.11,0 -147.048,-50.11 -156.858,-64.073" /></g></g></g></g><g
       id="g342"><g
         id="g344"><g
           id="g350"><g
             id="g352"><path
               id="path360"
               style="fill:url(#linearGradient354);stroke:none"
               d="m 471.499,415.778 c -8.061,-11.476 -8.398,-95.358 0,-105.313 l 0,0 c 8.397,-9.954 107.535,-52.658 131.057,-52.658 l 0,0 c 23.52,0 121.753,42.867 126.763,52.658 l 0,0 c 5.01,9.791 7.156,95.523 0,105.313 l 0,0 c -7.157,9.791 -106.631,52.657 -128.91,52.657 l 0,0 c -22.281,0 -120.849,-41.181 -128.91,-52.657" /></g></g></g></g><g
       id="g362"><g
         id="g364"><g
           id="g370"><g
             id="g372"><path
               id="path380"
               style="fill:url(#linearGradient374);stroke:none"
               d="m 465.329,353.587 c -0.671,-26.505 1.409,-39.366 6.171,-45.013 l 0,0 c 8.397,-9.953 107.535,-52.658 131.057,-52.658 l 0,0 c 23.52,0 123.47,43.661 126.763,52.658 l 0,0 c 3.293,8.998 5.639,50.511 4.072,79.683 l 0,0 c -102.277,-62.685 -222.049,-43.3 -268.063,-34.67" /></g></g></g></g><g
       id="g382"><g
         clip-path="url(#clipPath386)"
         id="g384"><g
           id="g390"><g
             id="g392" /><g
             id="g408"><g
               style="opacity:0.22000098"
               id="g410"
               clip-path="url(#clipPath394)"><g
                 id="g412"><g
                   id="g414"><g
                     id="g416"><g
                       id="g418"><path
                         id="path420"
                         style="fill:url(#linearGradient402);stroke:none"
                         d="m 465.329,353.586 c -0.671,-26.504 1.409,-39.365 6.171,-45.012 8.397,-9.953 107.535,-52.658 131.058,-52.658 23.519,0 123.469,43.661 126.762,52.658 3.293,8.998 5.639,50.51 4.072,79.683 C 631.115,325.572 511.343,344.958 465.329,353.586" /></g></g></g></g></g></g></g></g></g><g
       id="g422"><g
         id="g424"><g
           id="g430"><g
             id="g432"><path
               id="path462"
               style="fill:url(#linearGradient434);stroke:none"
               d="m 796.883,333.695 c -9.891,-14.08 -10.303,-116.999 0,-129.214 l 0,0 c 10.305,-12.216 131.942,-64.61 160.802,-64.61 l 0,0 c 28.858,0 149.385,52.596 155.532,64.61 l 0,0 c 6.145,12.011 8.78,117.201 0,129.214 l 0,0 c -8.781,12.012 -130.831,64.607 -158.168,64.607 l 0,0 c -27.335,0 -148.274,-50.528 -158.166,-64.607" /></g></g></g></g><g
       id="g464"><g
         id="g466"><g
           id="g472"><g
             id="g474"><path
               id="path504"
               style="fill:url(#linearGradient476);stroke:none"
               d="m 796.883,358.695 c -9.891,-14.08 -10.303,-117 0,-129.215 l 0,0 c 10.305,-12.215 131.942,-64.609 160.802,-64.609 l 0,0 c 28.858,0 149.385,52.596 155.532,64.609 l 0,0 c 6.145,12.012 8.78,117.203 0,129.215 l 0,0 c -8.781,12.012 -130.831,64.607 -158.168,64.607 l 0,0 c -27.335,0 -148.274,-50.527 -158.166,-64.607" /></g></g></g></g><g
       id="g506"><g
         id="g508"><g
           id="g514"><g
             id="g516"><path
               id="path530"
               style="fill:url(#linearGradient518);stroke:none"
               d="m 796.883,361.695 c -9.891,-14.08 -10.303,-116.999 0,-129.214 l 0,0 c 10.305,-12.215 131.942,-64.61 160.802,-64.61 l 0,0 c 28.858,0 149.385,52.596 155.532,64.61 l 0,0 c 6.145,12.011 8.78,117.201 0,129.214 l 0,0 c -8.781,12.012 -130.831,64.607 -158.168,64.607 l 0,0 c -27.335,0 -148.274,-50.528 -158.166,-64.607" /></g></g></g></g><g
       id="g532"><g
         id="g534"><g
           id="g540"><g
             id="g542"><path
               id="path550"
               style="fill:url(#radialGradient544);stroke:none"
               d="m 806.404,359.177 c -9.243,-13.156 -9.628,-109.327 0,-120.742 l 0,0 c 9.627,-11.412 123.29,-60.373 150.257,-60.373 l 0,0 c 26.966,0 139.591,49.149 145.334,60.373 l 0,0 c 5.743,11.225 8.205,109.518 0,120.742 l 0,0 c -8.206,11.225 -122.253,60.371 -147.796,60.371 l 0,0 c -25.544,0 -138.552,-47.213 -147.795,-60.371" /></g></g></g></g><g
       id="g552"><g
         id="g554"><g
           id="g560"><g
             id="g562"><path
               id="path592"
               style="fill:url(#linearGradient564);stroke:none"
               d="m 796.883,395.695 c -9.891,-14.08 -10.303,-117 0,-129.215 l 0,0 c 10.305,-12.215 131.942,-64.609 160.802,-64.609 l 0,0 c 28.858,0 149.385,52.596 155.532,64.609 l 0,0 c 6.145,12.012 8.78,117.203 0,129.215 l 0,0 c -8.781,12.012 -130.831,64.607 -158.168,64.607 l 0,0 c -27.335,0 -148.274,-50.527 -158.166,-64.607" /></g></g></g></g><g
       id="g594"><g
         id="g596"><g
           id="g602"><g
             id="g604"><path
               id="path634"
               style="fill:url(#linearGradient606);stroke:none"
               d="m 796.883,419.695 c -9.891,-14.079 -10.303,-117 0,-129.215 l 0,0 c 10.305,-12.214 131.942,-64.609 160.802,-64.609 l 0,0 c 28.858,0 149.385,52.596 155.532,64.609 l 0,0 c 6.145,12.012 8.78,117.203 0,129.215 l 0,0 c -8.781,12.012 -130.831,64.608 -158.168,64.608 l 0,0 c -27.335,0 -148.274,-50.528 -158.166,-64.608" /></g></g></g></g><g
       id="g636"><g
         id="g638"><g
           id="g644"><g
             id="g646"><path
               id="path658"
               style="fill:url(#linearGradient648);stroke:none"
               d="m 796.883,422.695 c -9.891,-14.08 -10.303,-117 0,-129.215 l 0,0 c 10.305,-12.215 131.942,-64.609 160.802,-64.609 l 0,0 c 28.858,0 149.385,52.596 155.532,64.609 l 0,0 c 6.145,12.012 8.78,117.203 0,129.215 l 0,0 c -8.781,12.012 -130.831,64.607 -158.168,64.607 l 0,0 c -27.335,0 -148.274,-50.527 -158.166,-64.607" /></g></g></g></g><g
       id="g660"><g
         clip-path="url(#clipPath664)"
         id="g662"><g
           transform="translate(956.7236,252.3066)"
           id="g668"><path
             id="path670"
             style="fill:#36a9e1;fill-opacity:1;fill-rule:nonzero;stroke:none"
             d="m 0,0 c -23.522,0 -122.66,42.705 -131.058,52.658 -8.397,9.955 -8.061,93.839 0,105.314 8.062,11.476 106.63,52.657 128.911,52.657 22.279,0 121.752,-42.867 128.91,-52.657 7.156,-9.79 5.009,-95.523 0,-105.314 C 121.753,42.867 23.52,0 0,0" /></g></g></g><g
       id="g672"><g
         id="g674"><g
           id="g680"><g
             id="g682"><path
               id="path694"
               style="fill:url(#linearGradient684);stroke:none"
               d="m 1112.886,265.947 c -0.86,-1.679 -3.857,-3.125 -7.355,-5.967 l 0,0 c -0.886,-9.751 -2.41,-19.29 -3.738,-21.886 l 0,0 C 1096.05,226.869 983.245,178.062 956.28,178.062 l 0,0 c -26.969,0 -140.249,48.961 -149.876,60.373 l 0,0 c -2.573,3.051 -4.5,12.877 -5.665,24.835 l 0,0 c -1.397,1.015 -3.23,2.47 -3.856,3.21 l 0,0 c -4.086,4.844 -6.123,21.957 -6.916,44.133 l 0,0 c -1.181,-33.629 1.159,-72.879 7.278,-80.133 l 0,0 c 10.303,-12.215 131.941,-64.609 160.8,-64.609 l 0,0 c 28.859,0 149.387,52.596 155.533,64.609 l 0,0 c 3.933,7.686 6.002,53.172 4.99,88.336 l 0,0 c -0.657,-25.715 -2.956,-47.544 -5.682,-52.869" /></g></g></g></g><g
       id="g696"><g
         id="g698"><g
           id="g704"><g
             id="g706"><path
               id="path718"
               style="fill:url(#linearGradient708);stroke:none"
               d="m 798.545,422.486 c -9.81,-13.963 -10.219,-116.031 0,-128.146 l 0,0 c 10.218,-12.113 130.851,-64.074 159.472,-64.074 l 0,0 c 28.619,0 148.15,52.159 154.245,64.074 l 0,0 c 6.095,11.914 8.709,116.233 0,128.146 l 0,0 c -8.708,11.913 -129.749,64.074 -156.859,64.074 l 0,0 c -27.11,0 -147.048,-50.11 -156.858,-64.074" /></g></g></g></g><g
       id="g720"><g
         id="g722"><g
           id="g728"><g
             id="g730"><path
               id="path738"
               style="fill:url(#linearGradient732);stroke:none"
               d="m 825.666,416.279 c -8.062,-11.476 -8.398,-95.359 0,-105.315 l 0,0 c 8.397,-9.953 107.535,-52.658 131.057,-52.658 l 0,0 c 23.52,0 121.753,42.868 126.764,52.658 l 0,0 c 5.009,9.791 7.155,95.525 0,105.315 l 0,0 c -7.158,9.79 -106.632,52.656 -128.911,52.656 l 0,0 c -22.28,0 -120.848,-41.18 -128.91,-52.656" /></g></g></g></g><g
       id="g740"><g
         id="g742"><g
           id="g748"><g
             id="g750"><path
               id="path758"
               style="fill:url(#linearGradient752);stroke:none"
               d="m 819.496,354.087 c -0.671,-26.505 1.409,-39.366 6.171,-45.013 l 0,0 c 8.397,-9.953 107.535,-52.658 131.057,-52.658 l 0,0 c 23.52,0 123.47,43.662 126.763,52.658 l 0,0 c 3.294,8.999 5.639,50.511 4.071,79.684 l 0,0 C 985.282,326.073 865.509,345.458 819.496,354.087" /></g></g></g></g><g
       id="g760"><g
         clip-path="url(#clipPath764)"
         id="g762"><g
           id="g768"><g
             id="g770" /><g
             id="g786"><g
               style="opacity:0.22000098"
               id="g788"
               clip-path="url(#clipPath772)"><g
                 id="g790"><g
                   id="g792"><g
                     id="g794"><g
                       id="g796"><path
                         id="path798"
                         style="fill:url(#linearGradient780);stroke:none"
                         d="m 819.496,354.087 c -0.671,-26.505 1.409,-39.366 6.171,-45.013 8.397,-9.953 107.535,-52.658 131.058,-52.658 23.519,0 123.469,43.662 126.762,52.658 3.293,8.998 5.639,50.511 4.072,79.684 -102.277,-62.686 -222.049,-43.3 -268.063,-34.671" /></g></g></g></g></g></g></g></g></g><g
       id="g800"><g
         id="g802"><g
           id="g808"><g
             id="g810"><path
               id="path822"
               style="fill:url(#linearGradient812);stroke:none"
               d="m 881.19,394.654 0,-54.802 20.163,7.866 0,39.083 49.946,19.475 0,15.719 -70.109,-27.341 z m 76.141,11.599 49.909,-19.452 0,-39.083 20.162,-7.855 0,54.791 -70.071,27.317 0,-15.718 z m -3.034,-81.357 -50.163,19.56 -20.179,-7.864 70.342,-27.414 70.34,27.414 -20.161,7.864 -50.179,-19.56 z" /></g></g></g></g></g></svg>